<?xml version="1.0" encoding="utf-8"?>
<!-- Generator: Adobe Illustrator 24.1.1, SVG Export Plug-In . SVG Version: 6.00 Build 0)  -->
<svg version="1.1" id="Layer_1" xmlns="http://www.w3.org/2000/svg" xmlns:xlink="http://www.w3.org/1999/xlink" x="0px" y="0px"
	 viewBox="0 0 504 288" style="enable-background:new 0 0 504 288;" xml:space="preserve">
<style type="text/css">
	.st0{clip-path:url(#SVGID_1_);}
	.st1{fill:#FF9900;}
	.st2{fill:#00D4AB;}
	.st3{fill:#FFFFFF;}
	.st4{fill:#00FFEC;}
</style>
<g>
	<g>
		<defs>
			<rect id="SVGID_1531_" x="0" width="504" height="288"/>
		</defs>
		<use xlink:href="#SVGID_1531_"  style="overflow:visible;"/>
		<clipPath id="SVGID_1_">
			<use xlink:href="#SVGID_1531_"  style="overflow:visible;"/>
		</clipPath>
		<g class="st0">
			<path class="st1" d="M283.38,308.63c-0.16-0.23-0.11-0.54,0.11-0.7l0,0c0.23-0.16,0.54-0.11,0.7,0.12l0,0
				c0.16,0.22,0.11,0.53-0.11,0.69l0,0c-0.09,0.07-0.19,0.1-0.29,0.1l0,0C283.63,308.83,283.47,308.75,283.38,308.63z
				 M289.16,303.13c-0.22-0.16-0.27-0.47-0.1-0.7l0,0c0.16-0.22,0.48-0.26,0.7-0.1l0,0c0.22,0.17,0.26,0.48,0.1,0.7l0,0l0,0l0,0
				c-0.1,0.13-0.25,0.2-0.4,0.2l0,0C289.36,303.24,289.25,303.2,289.16,303.13z M293.05,296.17c-0.27-0.09-0.4-0.37-0.31-0.63l0,0
				c0.09-0.26,0.38-0.4,0.64-0.31l0,0c0.26,0.09,0.39,0.38,0.31,0.64l0,0c-0.08,0.2-0.27,0.33-0.48,0.33l0,0
				C293.16,296.2,293.1,296.2,293.05,296.17z M294.6,288.37c-0.27,0-0.5-0.23-0.49-0.5l0,0c0-0.28,0.22-0.5,0.5-0.5l0,0
				c0.28,0.01,0.5,0.23,0.5,0.51l0,0C295.11,288.15,294.88,288.37,294.6,288.37L294.6,288.37L294.6,288.37z M292.82,280.19
				c-0.09-0.27,0.04-0.55,0.31-0.64l0,0c0.26-0.09,0.54,0.05,0.63,0.31l0,0c0.09,0.26-0.04,0.54-0.31,0.64l0,0
				c-0.05,0.01-0.1,0.02-0.16,0.02l0,0C293.08,280.52,292.89,280.38,292.82,280.19z M289.14,273.29L289.14,273.29
				c-0.16-0.22-0.12-0.53,0.1-0.7l0,0c0.22-0.17,0.54-0.12,0.7,0.1l0,0l0,0l0,0c0.17,0.22,0.12,0.54-0.1,0.7l0,0
				c-0.09,0.07-0.19,0.1-0.3,0.1l0,0C289.39,273.49,289.24,273.42,289.14,273.29z M283.57,267.79c-0.22-0.16-0.27-0.48-0.11-0.7l0,0
				c0.16-0.22,0.48-0.27,0.7-0.11l0,0c0.22,0.16,0.27,0.47,0.11,0.7l0,0c-0.1,0.13-0.25,0.2-0.4,0.2l0,0
				C283.76,267.88,283.66,267.86,283.57,267.79z M244.88,264.44c-0.28-0.03-0.48-0.28-0.45-0.55l0,0c0.03-0.28,0.27-0.48,0.55-0.45
				l0,0c0.27,0.03,0.47,0.27,0.44,0.55l0,0c-0.02,0.26-0.24,0.45-0.49,0.45l0,0C244.91,264.44,244.89,264.44,244.88,264.44z
				 M252.42,263.95c-0.03-0.28,0.18-0.52,0.45-0.54l0,0l0,0l0,0c0.28-0.02,0.52,0.18,0.54,0.46l0,0c0.03,0.27-0.18,0.51-0.45,0.54
				l0,0c-0.02,0-0.03,0-0.04,0l0,0C252.66,264.41,252.44,264.2,252.42,263.95z M276.6,264.29c-0.26-0.07-0.41-0.35-0.33-0.62l0,0
				c0.08-0.26,0.36-0.41,0.62-0.33l0,0c0.27,0.08,0.42,0.36,0.34,0.62l0,0c-0.07,0.22-0.27,0.36-0.48,0.36l0,0
				C276.7,264.33,276.65,264.32,276.6,264.29z M260.37,263.13c-0.02-0.27,0.18-0.52,0.45-0.54l0,0c0.28-0.03,0.52,0.17,0.55,0.44
				l0,0c0.03,0.28-0.17,0.52-0.45,0.55l0,0c-0.01,0-0.03,0-0.05,0l0,0C260.62,263.58,260.4,263.38,260.37,263.13z M268.85,263.17
				c-0.28-0.01-0.5-0.24-0.49-0.51l0,0c0-0.28,0.23-0.5,0.51-0.49l0,0c0.27,0.01,0.49,0.23,0.49,0.51l0,0
				C269.35,262.95,269.13,263.17,268.85,263.17L268.85,263.17C268.85,263.17,268.85,263.17,268.85,263.17z M236.97,262.58
				c-0.25-0.11-0.38-0.4-0.28-0.65l0,0c0.1-0.26,0.4-0.39,0.65-0.28l0,0c0.26,0.1,0.39,0.39,0.28,0.65l0,0
				c-0.07,0.19-0.26,0.31-0.46,0.31l0,0C237.1,262.62,237.03,262.61,236.97,262.58z M230.18,258.08L230.18,258.08
				c-0.19-0.21-0.18-0.52,0.02-0.71l0,0c0.21-0.19,0.52-0.18,0.71,0.03l0,0l0,0l0,0c0.19,0.2,0.17,0.52-0.03,0.71l0,0
				c-0.1,0.08-0.22,0.13-0.34,0.13l0,0C230.41,258.25,230.27,258.19,230.18,258.08z M226.59,250.75c-0.05-0.27,0.13-0.53,0.4-0.58
				l0,0c0.28-0.05,0.53,0.14,0.58,0.41l0,0l0,0l0,0c0.05,0.27-0.13,0.53-0.4,0.58l0,0c-0.03,0-0.06,0-0.09,0l0,0
				C226.84,251.16,226.63,250.99,226.59,250.75z M227.34,243.21c-0.27-0.06-0.45-0.32-0.39-0.59l0,0c0.06-0.27,0.33-0.45,0.6-0.39
				l0,0c0.26,0.06,0.44,0.32,0.38,0.6l0,0c-0.05,0.23-0.26,0.39-0.49,0.39l0,0C227.41,243.21,227.37,243.21,227.34,243.21z
				 M229.48,235.5c-0.26-0.08-0.41-0.36-0.33-0.62l0,0c0.09-0.27,0.37-0.41,0.63-0.33l0,0c0.27,0.08,0.41,0.36,0.33,0.63l0,0l0,0
				l0,0c-0.07,0.21-0.27,0.35-0.48,0.35l0,0C229.58,235.53,229.53,235.52,229.48,235.5z M231.65,227.81
				c-0.28-0.06-0.45-0.32-0.4-0.59l0,0c0.05-0.27,0.31-0.45,0.59-0.4l0,0c0.27,0.06,0.44,0.32,0.39,0.59l0,0
				c-0.04,0.24-0.25,0.4-0.49,0.4l0,0C231.71,227.81,231.68,227.81,231.65,227.81z M231.56,219.41L231.56,219.41
				c-0.04-0.27,0.15-0.52,0.43-0.56l0,0c0.27-0.03,0.52,0.16,0.56,0.44l0,0c0.03,0.27-0.16,0.52-0.43,0.55l0,0
				c-0.03,0.01-0.05,0.01-0.07,0.01l0,0C231.8,219.86,231.59,219.66,231.56,219.41z M105.55,215.79c-0.27-0.02-0.49-0.25-0.48-0.52
				l0,0c0.02-0.28,0.25-0.5,0.53-0.48l0,0c0.27,0.01,0.48,0.24,0.47,0.52l0,0c-0.01,0.27-0.23,0.48-0.5,0.48l0,0
				C105.57,215.79,105.56,215.79,105.55,215.79z M113.07,215.13c-0.03-0.28,0.17-0.52,0.45-0.55l0,0l0,0l0,0
				c0.27-0.03,0.52,0.17,0.54,0.45l0,0c0.03,0.27-0.17,0.52-0.45,0.55l0,0c-0.01,0-0.03,0-0.04,0l0,0
				C113.31,215.58,113.09,215.38,113.07,215.13z M97.54,214.85c-0.27-0.05-0.45-0.32-0.39-0.59l0,0c0.05-0.27,0.31-0.45,0.58-0.39
				l0,0c0.27,0.05,0.45,0.31,0.4,0.58l0,0c-0.05,0.24-0.26,0.41-0.49,0.41l0,0C97.6,214.86,97.57,214.85,97.54,214.85z
				 M120.97,213.91c-0.06-0.27,0.11-0.54,0.38-0.6l0,0c0.27-0.06,0.54,0.11,0.6,0.38l0,0c0.05,0.27-0.12,0.54-0.39,0.6l0,0
				c-0.03,0.01-0.07,0.01-0.11,0.01l0,0C121.23,214.29,121.02,214.13,120.97,213.91z M89.78,212.61c-0.26-0.1-0.38-0.39-0.28-0.65
				l0,0c0.09-0.26,0.39-0.39,0.64-0.29l0,0c0.26,0.1,0.39,0.4,0.29,0.65l0,0c-0.08,0.2-0.27,0.32-0.47,0.32l0,0
				C89.9,212.63,89.84,212.63,89.78,212.61z M128.7,211.88c-0.08-0.26,0.07-0.54,0.33-0.63l0,0c0.27-0.08,0.55,0.07,0.63,0.33l0,0
				c0.08,0.26-0.07,0.55-0.33,0.63l0,0c-0.05,0.01-0.1,0.02-0.15,0.02l0,0C128.97,212.23,128.77,212.08,128.7,211.88z
				 M229.37,211.91h-0.01c-0.11-0.25,0-0.55,0.25-0.66l0,0c0.25-0.12,0.55-0.01,0.67,0.24l0,0c0,0,0,0-0.01,0l0,0
				c0.12,0.25,0.01,0.55-0.24,0.67l0,0c-0.07,0.03-0.14,0.04-0.21,0.04l0,0C229.63,212.21,229.45,212.1,229.37,211.91z
				 M136.27,209.28c-0.1-0.26,0.03-0.55,0.29-0.64l0,0l0,0l0,0c0.26-0.1,0.55,0.03,0.64,0.29l0,0c0.1,0.25-0.03,0.54-0.29,0.64l0,0
				c-0.05,0.02-0.11,0.03-0.17,0.03l0,0C136.53,209.6,136.34,209.48,136.27,209.28z M82.59,208.91c-0.23-0.16-0.3-0.47-0.14-0.69
				l0,0c0.15-0.23,0.46-0.3,0.69-0.15l0,0l0,0l0,0c0.23,0.15,0.29,0.46,0.14,0.7l0,0c-0.1,0.14-0.26,0.22-0.42,0.22l0,0
				C82.77,208.99,82.67,208.96,82.59,208.91z M143.7,206.31c-0.11-0.25,0.01-0.54,0.27-0.65l0,0c0.25-0.11,0.54,0.01,0.65,0.27l0,0
				c0.11,0.25-0.01,0.54-0.27,0.65l0,0c-0.06,0.03-0.13,0.04-0.19,0.04l0,0C143.96,206.62,143.78,206.5,143.7,206.31z
				 M225.16,205.29c-0.18-0.22-0.15-0.53,0.07-0.71l0,0c0.21-0.17,0.52-0.14,0.7,0.07l0,0c0.18,0.21,0.15,0.53-0.07,0.7l0,0
				c-0.09,0.08-0.2,0.12-0.32,0.12l0,0C225.4,205.48,225.26,205.41,225.16,205.29z M76.42,203.66c-0.19-0.2-0.18-0.52,0.03-0.71l0,0
				c0.2-0.18,0.52-0.17,0.7,0.04l0,0c0.19,0.2,0.18,0.52-0.03,0.7l0,0c-0.09,0.09-0.21,0.13-0.34,0.13l0,0
				C76.65,203.82,76.51,203.77,76.42,203.66z M151.06,203.16c-0.11-0.25,0-0.55,0.26-0.66l0,0c0.25-0.11,0.54,0.01,0.65,0.27l0,0
				c0.11,0.25,0,0.54-0.26,0.65l0,0c-0.06,0.03-0.13,0.04-0.2,0.04l0,0C151.32,203.46,151.14,203.36,151.06,203.16z M158.42,200.04
				c-0.11-0.26,0.01-0.55,0.27-0.66l0,0c0.25-0.1,0.55,0.02,0.65,0.28l0,0c0.11,0.25-0.02,0.54-0.27,0.65l0,0
				c-0.06,0.02-0.13,0.04-0.19,0.04l0,0C158.68,200.35,158.5,200.23,158.42,200.04z M219.5,199.82c-0.22-0.17-0.26-0.48-0.09-0.7
				l0,0c0.17-0.22,0.48-0.26,0.7-0.09l0,0c0.22,0.17,0.26,0.48,0.09,0.7l0,0c-0.1,0.13-0.25,0.2-0.4,0.2l0,0
				C219.7,199.92,219.59,199.88,219.5,199.82z M165.86,197.11c-0.1-0.26,0.04-0.55,0.3-0.64l0,0l0,0l0,0
				c0.26-0.1,0.54,0.04,0.64,0.29l0,0c0.09,0.27-0.04,0.55-0.3,0.65l0,0c-0.06,0.02-0.11,0.03-0.17,0.03l0,0
				C166.12,197.44,165.93,197.31,165.86,197.11z M71.74,197.04c-0.12-0.24-0.04-0.55,0.21-0.68l0,0c0.24-0.13,0.54-0.04,0.68,0.21
				l0,0c0.13,0.24,0.03,0.54-0.21,0.67l0,0c-0.07,0.04-0.15,0.06-0.23,0.06l0,0C72.01,197.29,71.83,197.21,71.74,197.04z
				 M212.81,195.65c-0.25-0.12-0.36-0.42-0.24-0.67l0,0c0.12-0.25,0.42-0.35,0.67-0.23l0,0c0.25,0.12,0.35,0.42,0.23,0.67l0,0
				c-0.08,0.18-0.26,0.28-0.44,0.28l0,0C212.95,195.7,212.88,195.69,212.81,195.65z M173.45,194.58c-0.08-0.27,0.07-0.54,0.34-0.62
				l0,0l0,0l0,0c0.27-0.08,0.54,0.08,0.62,0.34l0,0c0.08,0.26-0.08,0.54-0.34,0.62l0,0c-0.05,0.01-0.09,0.02-0.14,0.02l0,0
				C173.71,194.94,173.51,194.79,173.45,194.58z M181.21,192.63c-0.06-0.28,0.12-0.54,0.39-0.59l0,0c0.27-0.05,0.53,0.12,0.59,0.39
				l0,0c0.05,0.27-0.12,0.54-0.4,0.59l0,0c-0.03,0.01-0.06,0.01-0.09,0.01l0,0C181.46,193.03,181.25,192.86,181.21,192.63z
				 M205.4,192.98c-0.27-0.06-0.44-0.33-0.37-0.6l0,0c0.06-0.27,0.33-0.43,0.6-0.37l0,0c0.27,0.06,0.43,0.33,0.37,0.6l0,0
				c-0.06,0.23-0.26,0.39-0.49,0.39l0,0C205.47,193,205.43,192.99,205.4,192.98z M189.12,191.45c-0.03-0.27,0.18-0.51,0.46-0.53l0,0
				l0,0l0,0c0.27-0.03,0.51,0.18,0.53,0.46l0,0c0.02,0.27-0.18,0.51-0.46,0.53l0,0c-0.01,0.01-0.02,0.01-0.04,0.01l0,0
				C189.36,191.91,189.14,191.71,189.12,191.45z M197.58,191.83c-0.28-0.02-0.49-0.26-0.47-0.53l0,0c0.02-0.28,0.25-0.49,0.53-0.47
				l0,0l0,0l0,0c0.28,0.02,0.48,0.26,0.47,0.53l0,0c-0.02,0.27-0.24,0.47-0.5,0.47l0,0C197.6,191.83,197.59,191.83,197.58,191.83z
				 M68.77,189.52c-0.08-0.27,0.08-0.54,0.35-0.62l0,0c0.26-0.07,0.53,0.09,0.61,0.35l0,0l0,0l0,0c0.07,0.27-0.08,0.54-0.35,0.62
				l0,0c-0.04,0.01-0.09,0.01-0.13,0.01l0,0C69.03,189.88,68.83,189.74,68.77,189.52z M67.32,181.57h0.01
				c-0.03-0.27,0.17-0.52,0.44-0.55l0,0c0.28-0.02,0.52,0.18,0.55,0.45l0,0c0.03,0.28-0.17,0.52-0.45,0.55l0,0
				c-0.01,0-0.03,0-0.05,0l0,0C67.57,182.02,67.35,181.83,67.32,181.57z M67.49,174.03c-0.27,0-0.49-0.23-0.49-0.5l0,0
				c0-0.28,0.23-0.5,0.5-0.5l0,0c0.28,0,0.5,0.23,0.5,0.51l0,0c0,0.27-0.23,0.49-0.5,0.49l0,0C67.5,174.03,67.5,174.03,67.49,174.03
				z M67.82,166.04c-0.28-0.02-0.49-0.26-0.47-0.54l0,0c0.02-0.27,0.26-0.48,0.54-0.46l0,0c0.27,0.02,0.48,0.26,0.46,0.53l0,0
				c-0.02,0.27-0.24,0.47-0.5,0.47l0,0C67.84,166.04,67.83,166.04,67.82,166.04z M68.49,158.06c-0.28-0.02-0.48-0.26-0.46-0.54l0,0
				c0.03-0.28,0.27-0.48,0.55-0.45l0,0c0.28,0.02,0.48,0.27,0.45,0.54l0,0l0,0l0,0c-0.02,0.26-0.24,0.45-0.5,0.45l0,0
				C68.52,158.06,68.5,158.06,68.49,158.06z M69.2,150.08c-0.28-0.02-0.48-0.26-0.46-0.53l0,0c0.02-0.28,0.26-0.49,0.54-0.46l0,0
				c0.27,0.02,0.48,0.26,0.46,0.53l0,0c-0.02,0.26-0.24,0.47-0.5,0.47l0,0C69.23,150.1,69.21,150.1,69.2,150.08z M69.68,142.11
				c-0.28-0.01-0.5-0.24-0.49-0.52l0,0c0.01-0.27,0.24-0.49,0.51-0.48l0,0c0.28,0.01,0.5,0.24,0.49,0.51l0,0
				C70.18,141.88,69.96,142.11,69.68,142.11L69.68,142.11L69.68,142.11z M69.07,133.65L69.07,133.65c-0.02-0.28,0.19-0.52,0.46-0.53
				l0,0c0.28-0.02,0.52,0.18,0.54,0.46l0,0c0.01,0.28-0.2,0.52-0.47,0.53l0,0c-0.01,0-0.02,0-0.04,0l0,0
				C69.3,134.11,69.08,133.91,69.07,133.65z M68.01,125.79c-0.05-0.27,0.12-0.54,0.39-0.6l0,0c0.27-0.05,0.54,0.12,0.59,0.39l0,0
				l0,0l0,0c0.06,0.27-0.11,0.53-0.38,0.59l0,0c-0.04,0.01-0.07,0.01-0.11,0.01l0,0C68.27,126.19,68.06,126.03,68.01,125.79z
				 M65.67,118.27v-0.01c-0.11-0.25,0.01-0.54,0.26-0.65l0,0c0.26-0.11,0.55,0.01,0.65,0.26l0,0c0,0,0,0,0.01,0l0,0
				c0.11,0.26-0.01,0.55-0.27,0.66l0,0c-0.06,0.03-0.13,0.04-0.19,0.04l0,0C65.93,118.57,65.75,118.46,65.67,118.27z M61.8,111.41
				L61.8,111.41c-0.16-0.22-0.12-0.53,0.11-0.7l0,0c0.22-0.16,0.53-0.11,0.7,0.11l0,0l0,0l0,0c0.16,0.23,0.11,0.54-0.11,0.71l0,0
				c-0.09,0.06-0.19,0.09-0.3,0.09l0,0C62.05,111.62,61.9,111.54,61.8,111.41z M56.5,105.58c-0.21-0.18-0.22-0.5-0.04-0.71l0,0
				c0.18-0.2,0.5-0.22,0.7-0.04l0,0c0.21,0.19,0.23,0.5,0.05,0.71l0,0c-0.1,0.11-0.24,0.17-0.38,0.17l0,0
				C56.71,105.71,56.59,105.67,56.5,105.58z M-27.02,105.38c-0.1-0.26,0.03-0.55,0.29-0.65l0,0l0,0l0,0
				c0.25-0.1,0.54,0.03,0.64,0.29l0,0c0.1,0.26-0.03,0.55-0.29,0.64v0.01c-0.05,0.02-0.11,0.03-0.17,0.03l0,0
				C-26.76,105.71-26.95,105.58-27.02,105.38z M-19.54,102.56c-0.1-0.26,0.04-0.55,0.3-0.64l0,0c0.26-0.1,0.55,0.03,0.64,0.3l0,0
				c0.09,0.25-0.04,0.54-0.3,0.64l0,0c-0.05,0.02-0.11,0.03-0.17,0.03l0,0C-19.27,102.88-19.46,102.75-19.54,102.56z M50.12,100.94
				c-0.24-0.14-0.31-0.45-0.17-0.69l0,0c0.14-0.23,0.45-0.31,0.68-0.17l0,0l0,0l0,0c0.24,0.14,0.32,0.45,0.18,0.69l0,0
				c-0.09,0.15-0.26,0.24-0.43,0.24l0,0C50.29,101,50.2,100.99,50.12,100.94z M-12.01,99.87c-0.08-0.27,0.06-0.55,0.32-0.64l0,0l0,0
				l0,0c0.26-0.09,0.54,0.05,0.63,0.32l0,0c0.09,0.26-0.05,0.54-0.31,0.63l0,0c-0.06,0.02-0.11,0.03-0.16,0.03l0,0
				C-11.74,100.21-11.94,100.07-12.01,99.87z M-4.38,97.44c-0.08-0.27,0.07-0.55,0.34-0.62l0,0l0,0l0,0
				c0.26-0.08,0.54,0.07,0.62,0.34l0,0c0.07,0.26-0.08,0.54-0.34,0.62v-0.01c-0.05,0.02-0.1,0.02-0.14,0.02l0,0
				C-4.12,97.79-4.32,97.65-4.38,97.44z M43.01,97.46c-0.26-0.11-0.38-0.4-0.28-0.65l0,0c0.1-0.26,0.39-0.39,0.65-0.28l0,0
				c0.26,0.1,0.38,0.38,0.28,0.64l0,0c-0.08,0.2-0.27,0.32-0.47,0.32l0,0C43.13,97.5,43.07,97.49,43.01,97.46z M3.36,95.41
				c-0.07-0.27,0.1-0.54,0.37-0.6l0,0c0,0,0,0,0.01,0l0,0c0.26-0.06,0.53,0.11,0.59,0.38l0,0c0.06,0.27-0.11,0.53-0.38,0.6l0,0
				c-0.03,0-0.07,0.01-0.11,0.01l0,0C3.61,95.79,3.41,95.63,3.36,95.41z M35.44,95.12L35.44,95.12c-0.26-0.06-0.43-0.33-0.37-0.6
				l0,0c0.07-0.27,0.33-0.44,0.6-0.37l0,0l0,0l0,0c0.27,0.06,0.44,0.33,0.37,0.6l0,0c-0.05,0.23-0.26,0.38-0.48,0.38l0,0
				C35.52,95.13,35.48,95.13,35.44,95.12z M11.22,93.92c-0.04-0.27,0.15-0.52,0.42-0.56l0,0c0.28-0.04,0.53,0.15,0.57,0.43l0,0
				c0.03,0.27-0.16,0.52-0.43,0.56l0,0c-0.02,0-0.04,0.01-0.07,0.01l0,0C11.47,94.37,11.25,94.19,11.22,93.92z M27.62,93.86
				L27.62,93.86c-0.28-0.03-0.48-0.27-0.45-0.55l0,0c0.02-0.27,0.27-0.47,0.54-0.45l0,0c0.28,0.03,0.48,0.27,0.45,0.55l0,0
				c-0.02,0.25-0.24,0.45-0.5,0.45l0,0C27.65,93.86,27.63,93.86,27.62,93.86z M19.17,93.17c-0.01-0.28,0.21-0.51,0.49-0.52l0,0
				c0.27-0.01,0.5,0.2,0.51,0.48l0,0c0.02,0.28-0.2,0.51-0.48,0.52l0,0c0,0-0.01,0-0.02,0l0,0C19.41,93.66,19.18,93.45,19.17,93.17z
				"/>
		</g>
		<g class="st0">
			<path class="st2" d="M417.69,164.38c0.02-0.27,0.26-0.48,0.54-0.45l0,0c0.27,0.02,0.48,0.26,0.46,0.54l0,0
				c-0.03,0.27-0.27,0.48-0.54,0.45v0.01C417.87,164.9,417.67,164.66,417.69,164.38z M425.67,164.25c-0.04-0.27,0.15-0.52,0.43-0.56
				l0,0c0,0,0,0,0-0.01l0,0c0.27-0.04,0.52,0.15,0.56,0.43l0,0c0.04,0.27-0.14,0.52-0.42,0.56l0,0c-0.02,0.01-0.05,0.01-0.07,0.01
				l0,0C425.92,164.67,425.71,164.5,425.67,164.25z M410.21,163.28c-0.26-0.09-0.4-0.37-0.31-0.63l0,0c0.09-0.27,0.38-0.4,0.64-0.31
				l0,0c0.26,0.09,0.4,0.37,0.31,0.63l0,0c-0.07,0.21-0.27,0.34-0.47,0.34l0,0C410.32,163.31,410.27,163.29,410.21,163.28z
				 M433.44,162.37c-0.1-0.26,0.03-0.55,0.29-0.64l0,0c0.25-0.1,0.54,0.03,0.64,0.29l0,0c0.1,0.25-0.03,0.54-0.29,0.64l0,0
				c-0.06,0.02-0.12,0.03-0.18,0.03l0,0C433.7,162.69,433.51,162.57,433.44,162.37z M402.97,159.63L402.97,159.63
				c-0.23-0.16-0.29-0.47-0.13-0.7l0,0c0.16-0.22,0.47-0.28,0.7-0.12l0,0c0.22,0.15,0.28,0.46,0.12,0.69l0,0
				c-0.1,0.14-0.25,0.22-0.41,0.22l0,0C403.15,159.73,403.05,159.7,402.97,159.63z M440.59,158.82c-0.16-0.23-0.1-0.54,0.13-0.7l0,0
				c0.23-0.15,0.54-0.09,0.7,0.14l0,0c0.15,0.23,0.09,0.54-0.14,0.7l0,0c-0.08,0.05-0.18,0.08-0.28,0.08l0,0
				C440.84,159.04,440.68,158.96,440.59,158.82z M397.02,154.12c-0.18-0.21-0.14-0.53,0.07-0.7l0,0c0.21-0.18,0.53-0.14,0.7,0.07
				l0,0c0.18,0.21,0.15,0.53-0.07,0.7l0,0c-0.09,0.08-0.2,0.12-0.32,0.12l0,0C397.26,154.31,397.12,154.24,397.02,154.12z
				 M446.68,153.66c-0.21-0.19-0.23-0.5-0.05-0.71l0,0c0.18-0.21,0.5-0.23,0.71-0.04l0,0c0.2,0.18,0.22,0.49,0.04,0.7l0,0
				c-0.1,0.11-0.23,0.17-0.37,0.17l0,0C446.89,153.79,446.77,153.75,446.68,153.66z M392.74,147.24c-0.11-0.25,0-0.55,0.25-0.67l0,0
				c0.25-0.11,0.54,0,0.66,0.25l0,0c0.12,0.25,0,0.55-0.25,0.66l0,0c-0.06,0.03-0.13,0.05-0.2,0.05l0,0
				C393.01,147.53,392.82,147.41,392.74,147.24z M451.18,147.08c-0.25-0.12-0.35-0.42-0.23-0.67l0,0c0.12-0.25,0.42-0.35,0.67-0.23
				l0,0c0.25,0.12,0.35,0.42,0.23,0.67l0,0c-0.09,0.18-0.26,0.28-0.45,0.28l0,0C451.33,147.13,451.25,147.12,451.18,147.08z
				 M390.22,139.54L390.22,139.54c-0.05-0.27,0.12-0.53,0.39-0.59l0,0c0.27-0.05,0.54,0.12,0.59,0.39l0,0l0,0l0,0
				c0.06,0.27-0.11,0.54-0.39,0.59l0,0c-0.03,0.01-0.06,0.01-0.09,0.01l0,0C390.48,139.94,390.27,139.78,390.22,139.54z
				 M454.24,139.7c-0.26-0.1-0.39-0.38-0.3-0.64l0,0c0.1-0.26,0.38-0.39,0.64-0.3l0,0c0.26,0.1,0.4,0.38,0.3,0.64l0,0
				c-0.07,0.2-0.26,0.33-0.47,0.33l0,0C454.36,139.73,454.3,139.71,454.24,139.7z M501.49,138.61c-0.28-0.02-0.48-0.27-0.45-0.54
				l0,0c0.02-0.28,0.27-0.48,0.54-0.45l0,0c0.28,0.02,0.48,0.27,0.45,0.54l0,0c-0.02,0.26-0.24,0.45-0.49,0.45l0,0
				C501.52,138.61,501.51,138.61,501.49,138.61z M508.96,137.38c-0.09-0.26,0.06-0.54,0.32-0.63l0,0c0.26-0.09,0.54,0.06,0.63,0.32
				l0,0c0.08,0.26-0.06,0.55-0.32,0.63l0,0c-0.05,0.02-0.1,0.03-0.16,0.03l0,0C509.22,137.74,509.03,137.6,508.96,137.38z
				 M493.72,136.13c-0.24-0.14-0.31-0.45-0.17-0.69l0,0c0.14-0.23,0.45-0.31,0.69-0.17l0,0c0.23,0.15,0.31,0.45,0.17,0.69l0,0
				c-0.1,0.16-0.26,0.24-0.43,0.24l0,0C493.89,136.2,493.8,136.17,493.72,136.13z M515.92,133.57c-0.19-0.2-0.18-0.51,0.02-0.7l0,0
				c0.2-0.19,0.51-0.18,0.71,0.02l0,0c0.18,0.2,0.17,0.51-0.02,0.7l0,0c-0.1,0.09-0.23,0.14-0.35,0.14l0,0
				C516.15,133.73,516.02,133.67,515.92,133.57z M457.16,132.25c-0.25-0.12-0.35-0.42-0.23-0.67l0,0c0.11-0.25,0.41-0.36,0.66-0.24
				l0,0c0.25,0.12,0.36,0.42,0.24,0.67l0,0c-0.08,0.18-0.26,0.28-0.45,0.28l0,0C457.31,132.29,457.23,132.29,457.16,132.25z
				 M389.96,131.99c-0.28,0-0.5-0.23-0.49-0.51l0,0c0-0.27,0.23-0.49,0.51-0.49l0,0c0.27,0.01,0.49,0.23,0.49,0.51l0,0
				C390.46,131.77,390.24,131.99,389.96,131.99L389.96,131.99C389.96,131.99,389.96,131.99,389.96,131.99z M487.63,130.75
				L487.63,130.75c-0.18-0.2-0.17-0.52,0.04-0.7l0,0c0.2-0.19,0.52-0.17,0.7,0.03l0,0c0.19,0.21,0.17,0.52-0.03,0.71l0,0
				c-0.1,0.08-0.22,0.13-0.34,0.13l0,0C487.87,130.92,487.73,130.87,487.63,130.75z M520.39,127.03c-0.26-0.09-0.39-0.38-0.3-0.64
				l0,0l0,0l0,0c0.09-0.26,0.37-0.39,0.64-0.3l0,0c0.26,0.09,0.39,0.38,0.3,0.64l0,0c-0.07,0.2-0.27,0.33-0.47,0.33l0,0
				C520.5,127.06,520.45,127.04,520.39,127.03z M461.4,125.5c-0.2-0.19-0.21-0.51-0.02-0.71l0,0c0,0,0,0-0.01,0l0,0
				c0.19-0.21,0.51-0.22,0.71-0.03l0,0c0.2,0.19,0.22,0.5,0.03,0.7l0,0c-0.1,0.11-0.24,0.17-0.37,0.17l0,0
				C461.62,125.63,461.5,125.58,461.4,125.5z M482.29,124.83c-0.2-0.19-0.2-0.51,0-0.71l0,0c0.19-0.19,0.5-0.19,0.7,0l0,0l0,0l0,0
				c0.2,0.19,0.2,0.51,0.01,0.71l0,0c-0.1,0.1-0.23,0.15-0.36,0.15l0,0C482.51,124.99,482.39,124.94,482.29,124.83z M390.86,124.06
				c-0.26-0.07-0.43-0.34-0.36-0.6l0,0c0.06-0.27,0.34-0.44,0.61-0.37l0,0c0.26,0.06,0.42,0.34,0.36,0.61l0,0
				c-0.06,0.22-0.26,0.37-0.49,0.37l0,0C390.94,124.07,390.9,124.07,390.86,124.06z M467.73,120.7c-0.1-0.25,0.02-0.55,0.28-0.65
				l0,0l0,0l0,0c0.26-0.1,0.55,0.03,0.65,0.28l0,0c0.1,0.26-0.03,0.55-0.28,0.65l0,0c-0.06,0.03-0.12,0.04-0.18,0.04l0,0
				C467.99,121.02,467.81,120.9,467.73,120.7z M475.87,120.62L475.87,120.62c-0.26-0.08-0.41-0.36-0.33-0.62l0,0
				c0.08-0.27,0.36-0.41,0.63-0.33l0,0c0.26,0.08,0.41,0.36,0.33,0.63l0,0c-0.07,0.21-0.27,0.35-0.48,0.35l0,0
				C475.97,120.65,475.92,120.63,475.87,120.62z M521.1,118.71c-0.02-0.28,0.19-0.52,0.47-0.54l0,0c0.27-0.01,0.51,0.19,0.53,0.47
				l0,0c0.02,0.27-0.19,0.51-0.46,0.53l0,0c-0.01,0-0.03,0-0.04,0l0,0C521.34,119.17,521.12,118.98,521.1,118.71z M393.6,116.56
				c-0.24-0.13-0.33-0.43-0.2-0.67l0,0c0.13-0.24,0.43-0.34,0.68-0.21l0,0c0.24,0.13,0.33,0.44,0.2,0.68l0,0l0,0l0,0
				c-0.09,0.17-0.26,0.26-0.44,0.26l0,0C393.76,116.62,393.68,116.6,393.6,116.56z M518.99,111.28c-0.13-0.24-0.04-0.54,0.2-0.67
				l0,0c0.25-0.14,0.55-0.04,0.68,0.2l0,0c0.13,0.24,0.04,0.55-0.2,0.68l0,0c-0.08,0.04-0.16,0.06-0.24,0.06l0,0
				C519.25,111.54,519.08,111.45,518.99,111.28z M398.2,110.04c-0.2-0.2-0.21-0.51-0.01-0.71l0,0c0.19-0.2,0.51-0.21,0.7-0.01l0,0
				c0.2,0.19,0.2,0.51,0.01,0.7l0,0c-0.09,0.11-0.22,0.16-0.36,0.16l0,0C398.42,110.19,398.29,110.13,398.2,110.04z M404.2,104.77
				c-0.17-0.22-0.12-0.54,0.1-0.7l0,0c0.21-0.17,0.53-0.12,0.69,0.1l0,0c0.17,0.21,0.13,0.53-0.09,0.69l0,0
				c-0.09,0.07-0.2,0.11-0.3,0.11l0,0C404.45,104.96,404.29,104.9,404.2,104.77z M410.73,100.13c-0.16-0.23-0.1-0.54,0.13-0.7l0,0
				c0.23-0.15,0.54-0.09,0.69,0.14l0,0c0.16,0.22,0.1,0.53-0.13,0.69l0,0c-0.08,0.06-0.18,0.09-0.28,0.09l0,0
				C410.98,100.36,410.82,100.28,410.73,100.13z M417.29,95.54c-0.17-0.22-0.13-0.53,0.1-0.69l0,0c0.21-0.17,0.53-0.13,0.69,0.09
				l0,0c0.17,0.22,0.13,0.54-0.09,0.7l0,0c-0.09,0.07-0.2,0.1-0.3,0.1l0,0C417.53,95.75,417.38,95.67,417.29,95.54z M423.36,90.36
				c-0.2-0.19-0.21-0.5-0.02-0.7l0,0c0.19-0.21,0.5-0.22,0.71-0.03l0,0c0.2,0.19,0.21,0.51,0.02,0.71l0,0
				c-0.1,0.1-0.23,0.16-0.37,0.16l0,0C423.58,90.5,423.46,90.45,423.36,90.36z M427.93,83.86c-0.25-0.11-0.37-0.4-0.27-0.66l0,0
				c0.11-0.25,0.4-0.37,0.66-0.27l0,0c0.25,0.11,0.37,0.4,0.27,0.65l0,0c-0.08,0.2-0.27,0.31-0.47,0.31l0,0
				C428.06,83.88,428,83.88,427.93,83.86z M428.89,75.62c-0.02-0.28,0.19-0.52,0.46-0.54l0,0c0.28-0.02,0.52,0.19,0.54,0.46l0,0
				c0.02,0.28-0.19,0.52-0.46,0.54l0,0c-0.01,0-0.03,0-0.04,0l0,0C429.13,76.08,428.91,75.88,428.89,75.62z M426.58,68.25
				c-0.13-0.24-0.05-0.55,0.2-0.69l0,0c0.24-0.13,0.54-0.04,0.68,0.2l0,0c0.13,0.24,0.05,0.54-0.19,0.68l0,0
				c-0.08,0.04-0.17,0.06-0.25,0.06l0,0C426.85,68.5,426.68,68.42,426.58,68.25z M421.71,62.13c-0.21-0.18-0.22-0.5-0.03-0.7l0,0
				c0.19-0.2,0.51-0.21,0.71-0.02l0,0l0,0l0,0c0.2,0.19,0.21,0.5,0.02,0.71l0,0c-0.1,0.1-0.23,0.15-0.36,0.15l0,0
				C421.92,62.28,421.8,62.24,421.71,62.13z M415.4,57.42L415.4,57.42c-0.25-0.14-0.32-0.45-0.18-0.69l0,0
				c0.14-0.23,0.45-0.31,0.69-0.17l0,0l0,0l0,0c0.23,0.14,0.31,0.44,0.17,0.68l0,0c-0.09,0.16-0.26,0.25-0.43,0.25l0,0
				C415.56,57.5,415.48,57.48,415.4,57.42z M408.28,53.94c-0.26-0.11-0.37-0.4-0.27-0.66l0,0c0.11-0.25,0.4-0.37,0.66-0.26l0,0l0,0
				l0,0c0.25,0.11,0.37,0.4,0.26,0.65l0,0c-0.08,0.19-0.26,0.31-0.45,0.31l0,0C408.41,53.98,408.34,53.96,408.28,53.94z
				 M400.86,50.96L400.86,50.96c-0.25-0.1-0.38-0.39-0.28-0.65l0,0c0.1-0.26,0.39-0.38,0.65-0.28l0,0c0.26,0.1,0.38,0.39,0.28,0.65
				l0,0c-0.08,0.19-0.27,0.32-0.46,0.32l0,0C400.99,51,400.92,50.99,400.86,50.96z M393.48,47.79c-0.25-0.12-0.35-0.42-0.23-0.67
				l0,0c0.12-0.25,0.42-0.35,0.67-0.23l0,0c0.24,0.12,0.35,0.42,0.23,0.67l0,0c-0.09,0.17-0.27,0.28-0.45,0.28l0,0
				C393.63,47.85,393.55,47.83,393.48,47.79z M386.52,43.7c-0.22-0.16-0.27-0.48-0.11-0.7l0,0c0.16-0.22,0.47-0.27,0.7-0.11l0,0l0,0
				l0,0c0.22,0.16,0.27,0.48,0.11,0.7l0,0c-0.1,0.14-0.25,0.21-0.41,0.21l0,0C386.71,43.79,386.61,43.77,386.52,43.7z M380.54,38.25
				c-0.19-0.2-0.17-0.52,0.04-0.7l0,0c0.21-0.19,0.52-0.17,0.71,0.04l0,0c0.18,0.2,0.16,0.52-0.05,0.7l0,0
				c-0.09,0.09-0.21,0.13-0.33,0.13l0,0C380.77,38.42,380.64,38.36,380.54,38.25z M375.81,31.69c-0.14-0.24-0.06-0.54,0.18-0.68l0,0
				c0.24-0.14,0.54-0.06,0.68,0.18l0,0c0.14,0.24,0.06,0.55-0.18,0.69l0,0c-0.08,0.04-0.16,0.06-0.25,0.06l0,0
				C376.07,31.94,375.9,31.85,375.81,31.69z M372.44,24.34c-0.09-0.26,0.05-0.54,0.31-0.63l0,0c0.26-0.09,0.55,0.05,0.64,0.3l0,0
				c0.09,0.27-0.05,0.55-0.31,0.64l0,0c-0.05,0.02-0.11,0.03-0.16,0.03l0,0C372.71,24.68,372.52,24.55,372.44,24.34z M370.55,16.48
				c-0.04-0.27,0.15-0.52,0.43-0.56l0,0c0.27-0.04,0.52,0.15,0.56,0.42l0,0c0.04,0.28-0.15,0.53-0.43,0.57l0,0
				c-0.02,0-0.04,0-0.07,0l0,0C370.8,16.91,370.58,16.73,370.55,16.48z M370.71,8.93c-0.28-0.02-0.48-0.25-0.47-0.53l0,0
				c0.02-0.27,0.26-0.48,0.53-0.47l0,0c0.28,0.02,0.49,0.26,0.47,0.54l0,0c-0.02,0.26-0.23,0.46-0.49,0.46l0,0
				C370.73,8.93,370.72,8.93,370.71,8.93z M371.99,1.05c-0.27-0.08-0.42-0.35-0.34-0.62l0,0c0.08-0.26,0.35-0.42,0.62-0.34l0,0
				c0.26,0.08,0.41,0.36,0.34,0.62l0,0c-0.07,0.22-0.27,0.36-0.48,0.36l0,0C372.08,1.07,372.03,1.07,371.99,1.05z M374.96-6.36
				c-0.24-0.13-0.33-0.43-0.19-0.68l0,0c0.13-0.24,0.43-0.33,0.67-0.19l0,0c0.24,0.13,0.34,0.43,0.2,0.68l0,0
				c-0.09,0.16-0.26,0.25-0.44,0.25l0,0C375.12-6.3,375.04-6.32,374.96-6.36z M379.41-12.99c-0.21-0.17-0.23-0.49-0.05-0.7l0,0
				c0.18-0.21,0.49-0.24,0.71-0.06l0,0c0.2,0.18,0.23,0.49,0.05,0.71l0,0c-0.1,0.11-0.24,0.17-0.38,0.17l0,0
				C379.62-12.87,379.51-12.91,379.41-12.99z M385.08-18.62c-0.17-0.21-0.13-0.53,0.08-0.7l0,0c0.22-0.17,0.54-0.14,0.71,0.08l0,0
				c0.17,0.22,0.13,0.53-0.08,0.7l0,0c-0.09,0.08-0.2,0.11-0.31,0.11l0,0C385.33-18.43,385.18-18.49,385.08-18.62z M391.72-23.07
				c-0.12-0.24-0.03-0.54,0.22-0.67l0,0c0.24-0.13,0.54-0.04,0.67,0.21l0,0c0.13,0.24,0.03,0.55-0.21,0.68l0,0l0,0l0,0
				c-0.08,0.03-0.16,0.05-0.23,0.05l0,0C391.99-22.8,391.81-22.89,391.72-23.07z M399.1-26.11c-0.07-0.27,0.08-0.55,0.35-0.62l0,0
				c0.26-0.08,0.54,0.08,0.61,0.34l0,0c0.08,0.27-0.07,0.54-0.34,0.62l0,0c-0.05,0.01-0.09,0.02-0.14,0.02l0,0
				C399.36-25.75,399.16-25.89,399.1-26.11z M406.95-27.57c-0.01-0.27,0.19-0.51,0.47-0.53l0,0c0.28-0.01,0.51,0.2,0.53,0.47l0,0
				c0.02,0.28-0.19,0.52-0.47,0.53l0,0c-0.01,0-0.02,0-0.03,0l0,0C407.19-27.1,406.97-27.3,406.95-27.57z"/>
		</g>
		<g class="st0">
			<path class="st3" d="M253.32,307.9c-20.67-0.83-40.06-13.29-49.39-31.75c-2.74-5.42-4.63-11.29-6.45-16.96
				c-1.34-4.17-2.72-8.48-4.43-12.57c-2.8-6.68-9.19-18.41-20.56-21.87c-12.24-3.72-25.01,3.28-36.28,9.46l-1.72,0.94
				c-11.56,6.31-27.72,12.05-39.03,3.56c-9.43-7.08-9.94-18.84-10.49-31.3c-0.32-7.3-0.65-14.85-2.92-21.42
				c-6.7-19.33-29.92-27.43-48.37-25.23c-20.03,2.39-37.97,13.89-53.79,24.05l-0.54-0.84c15.91-10.21,33.95-21.78,54.21-24.2
				c18.84-2.24,42.57,6.07,49.44,25.9c2.32,6.71,2.66,14.33,2.98,21.71c0.54,12.22,1.04,23.75,10.09,30.55
				c10.89,8.17,26.65,2.54,37.95-3.63l1.72-0.94c11.44-6.27,24.41-13.38,37.05-9.54c8.72,2.65,16.24,10.62,21.19,22.44
				c1.73,4.13,3.12,8.46,4.46,12.65c1.81,5.64,3.68,11.47,6.39,16.81c9.03,17.86,28.54,30.4,48.54,31.21L253.32,307.9z"/>
		</g>
		<g class="st0">
			<path class="st3" d="M514.49,105.77c-4.15,0-8.38-0.58-12.55-1.75c-11.75-3.29-21.43-10.81-26.58-20.65
				c-2.01-3.83-3.47-8.04-4.89-12.11c-2.55-7.34-4.96-14.27-10.3-19.41c-13.79-13.26-37.2-5.09-49.93,0.96l-1.08,0.51
				c-16.1,7.67-34.35,16.35-50.5,8.88c-14.96-6.92-20.63-24.56-25.63-40.12c-0.5-1.56-1-3.11-1.5-4.64
				c-5.78-17.53-18.09-35.55-35.35-33.58l-0.11-0.99c17.86-2.05,30.51,16.36,36.41,34.26c0.5,1.53,1,3.08,1.51,4.65
				c5.18,16.11,10.54,32.78,25.1,39.52c15.72,7.28,33.75-1.3,49.65-8.87l1.08-0.51c12.96-6.16,36.83-14.46,51.05-0.78
				c5.51,5.3,8.07,12.67,10.55,19.8c1.4,4.04,2.86,8.21,4.83,11.98c5.02,9.59,14.49,16.93,25.97,20.15
				c11.48,3.21,23.38,1.85,32.65-3.74l0.52,0.86C529.25,103.88,522,105.77,514.49,105.77z"/>
		</g>
		<g class="st0">
			<circle class="st1" cx="140.79" cy="130.07" r="0.59"/>
			<circle class="st1" cx="90.64" cy="137.19" r="0.59"/>
			<circle class="st1" cx="162.25" cy="132.84" r="0.59"/>
			<circle class="st1" cx="130.29" cy="82.2" r="0.59"/>
			<circle class="st1" cx="102.3" cy="141.97" r="0.59"/>
			<circle class="st1" cx="102.57" cy="151.55" r="0.59"/>
			<circle class="st1" cx="125.7" cy="124.8" r="0.59"/>
			<circle class="st1" cx="143.98" cy="137.22" r="0.59"/>
			<circle class="st1" cx="145.99" cy="123.67" r="0.59"/>
			<path class="st1" d="M155.5,121.5c0,0.33-0.26,0.59-0.59,0.59c-0.33,0-0.59-0.26-0.59-0.59c0-0.33,0.26-0.59,0.59-0.59
				C155.24,120.91,155.5,121.17,155.5,121.5z"/>
			<circle class="st1" cx="150.17" cy="99.05" r="0.59"/>
			<circle class="st1" cx="96.7" cy="134.9" r="0.59"/>
			<path class="st1" d="M124.62,145.62c0,0.33-0.26,0.59-0.59,0.59c-0.33,0-0.59-0.26-0.59-0.59c0-0.33,0.26-0.59,0.59-0.59
				C124.35,145.03,124.62,145.29,124.62,145.62z"/>
			<circle class="st1" cx="137.77" cy="84.98" r="0.59"/>
			<circle class="st1" cx="88.45" cy="128.11" r="0.59"/>
			<circle class="st1" cx="145.41" cy="86.65" r="0.59"/>
			<circle class="st1" cx="110.49" cy="116.81" r="0.59"/>
			<circle class="st1" cx="96.29" cy="126.01" r="0.59"/>
			<path class="st1" d="M121.61,131.09c0,0.33-0.26,0.59-0.59,0.59c-0.33,0-0.59-0.26-0.59-0.59c0-0.33,0.26-0.59,0.59-0.59
				C121.34,130.5,121.61,130.77,121.61,131.09z"/>
			<circle class="st1" cx="102.67" cy="89.98" r="0.59"/>
			<circle class="st1" cx="117.66" cy="138.22" r="0.59"/>
			<circle class="st1" cx="132.4" cy="102.7" r="0.59"/>
			<circle class="st1" cx="152.79" cy="130.28" r="0.59"/>
			<circle class="st1" cx="156.22" cy="113.46" r="0.59"/>
			<circle class="st1" cx="94.83" cy="98.38" r="0.59"/>
			<circle class="st1" cx="104.64" cy="123.29" r="0.59"/>
			<circle class="st1" cx="126.78" cy="138.23" r="0.59"/>
			<circle class="st1" cx="112.02" cy="92.87" r="0.59"/>
			<circle class="st1" cx="134.06" cy="123.07" r="0.59"/>
			<circle class="st1" cx="124.22" cy="106.73" r="0.59"/>
			<circle class="st1" cx="121.75" cy="82.23" r="0.59"/>
			<circle class="st1" cx="131.55" cy="131.31" r="0.59"/>
			<circle class="st1" cx="123.7" cy="98.26" r="0.59"/>
			<circle class="st1" cx="164.44" cy="116.06" r="0.59"/>
			<circle class="st1" cx="122.1" cy="159.62" r="0.59"/>
			<circle class="st1" cx="102.59" cy="113.58" r="0.59"/>
			<circle class="st1" cx="109.24" cy="148.95" r="0.59"/>
			<circle class="st1" cx="151.26" cy="138.85" r="0.59"/>
			<circle class="st1" cx="109.08" cy="107.22" r="0.59"/>
			<circle class="st1" cx="136.52" cy="95.6" r="0.59"/>
			<circle class="st1" cx="127.73" cy="153.13" r="0.59"/>
			<circle class="st1" cx="138.2" cy="154.77" r="0.59"/>
			<circle class="st1" cx="87.69" cy="118.47" r="0.59"/>
			<circle class="st1" cx="111.32" cy="132.3" r="0.59"/>
			<circle class="st1" cx="117.34" cy="110.95" r="0.59"/>
			<circle class="st1" cx="147.38" cy="113.93" r="0.59"/>
			<circle class="st1" cx="113.69" cy="125.51" r="0.59"/>
			<circle class="st1" cx="132.3" cy="112.22" r="0.59"/>
			<circle class="st1" cx="126.05" cy="116.16" r="0.59"/>
			<circle class="st1" cx="111.67" cy="156.86" r="0.59"/>
			<path class="st1" d="M153.42,147.97c0,0.33-0.26,0.59-0.59,0.59c-0.33,0-0.59-0.26-0.59-0.59c0-0.33,0.26-0.59,0.59-0.59
				C153.15,147.37,153.42,147.64,153.42,147.97z"/>
			<circle class="st1" cx="104.74" cy="98.34" r="0.59"/>
			<circle class="st1" cx="143.14" cy="145.97" r="0.59"/>
			<circle class="st1" cx="90.43" cy="108.44" r="0.59"/>
			<circle class="st1" cx="103.6" cy="132.18" r="0.59"/>
			<circle class="st1" cx="133.22" cy="146.63" r="0.59"/>
			<circle class="st1" cx="95.85" cy="144.87" r="0.59"/>
			<circle class="st1" cx="112.15" cy="84.65" r="0.59"/>
			<circle class="st1" cx="162.4" cy="106.96" r="0.59"/>
			<circle class="st1" cx="145.89" cy="154.29" r="0.59"/>
			<circle class="st1" cx="143.68" cy="94.23" r="0.59"/>
			<path class="st1" d="M115.62,100.95c0,0.33-0.26,0.59-0.59,0.59c-0.33,0-0.59-0.26-0.59-0.59c0-0.33,0.26-0.59,0.59-0.59
				C115.35,100.36,115.62,100.62,115.62,100.95z"/>
			<circle class="st1" cx="95.83" cy="117.18" r="0.59"/>
			<circle class="st1" cx="139.51" cy="117.82" r="0.59"/>
			<circle class="st1" cx="152.56" cy="91.76" r="0.59"/>
			<path class="st1" d="M140.15,109.19c0,0.33-0.26,0.59-0.59,0.59c-0.33,0-0.59-0.26-0.59-0.59c0-0.33,0.26-0.59,0.59-0.59
				C139.89,108.6,140.15,108.86,140.15,109.19z"/>
			<circle class="st1" cx="118.62" cy="152.77" r="0.59"/>
			<circle class="st1" cx="152.6" cy="106.38" r="0.59"/>
			<circle class="st1" cx="132.22" cy="159.44" r="0.59"/>
			<circle class="st1" cx="159.08" cy="140.85" r="0.59"/>
			<circle class="st1" cx="115.81" cy="145.58" r="0.59"/>
			<path class="st1" d="M130.26,91.15c0,0.33-0.26,0.59-0.59,0.59c-0.33,0-0.59-0.26-0.59-0.59c0-0.33,0.26-0.59,0.59-0.59
				C129.99,90.56,130.26,90.83,130.26,91.15z"/>
			<circle class="st1" cx="135.85" cy="138.96" r="0.59"/>
			<circle class="st1" cx="158.41" cy="98.96" r="0.59"/>
			<circle class="st1" cx="120.61" cy="90.41" r="0.59"/>
			<circle class="st1" cx="163.96" cy="124.74" r="0.59"/>
			<circle class="st1" cx="99.57" cy="105.81" r="0.59"/>
			<circle class="st1" cx="143.41" cy="103.32" r="0.59"/>
			<circle class="st1" cx="109.28" cy="140.15" r="0.59"/>
			<circle class="st1" cx="118.8" cy="119.89" r="0.59"/>
		</g>
		<g class="st0">
			<circle class="st3" cx="324.47" cy="230.35" r="0.88"/>
			<circle class="st3" cx="333.1" cy="230.35" r="0.88"/>
			<circle class="st3" cx="341.72" cy="230.35" r="0.88"/>
			<circle class="st3" cx="350.35" cy="230.35" r="0.88"/>
			<circle class="st3" cx="358.97" cy="230.35" r="0.88"/>
			<circle class="st3" cx="367.59" cy="230.35" r="0.88"/>
			<circle class="st3" cx="376.22" cy="230.35" r="0.88"/>
			<circle class="st3" cx="384.84" cy="230.35" r="0.88"/>
			<circle class="st3" cx="393.47" cy="230.35" r="0.88"/>
			<circle class="st3" cx="402.09" cy="230.35" r="0.88"/>
			<circle class="st3" cx="410.71" cy="230.35" r="0.88"/>
			<path class="st3" d="M419.34,231.23c0.49,0,0.88-0.4,0.88-0.88s-0.4-0.88-0.88-0.88c-0.49,0-0.88,0.4-0.88,0.88
				S418.85,231.23,419.34,231.23z"/>
			<circle class="st3" cx="427.96" cy="230.35" r="0.88"/>
			<circle class="st3" cx="436.59" cy="230.35" r="0.88"/>
			<path class="st3" d="M445.21,231.23c0.49,0,0.88-0.4,0.88-0.88s-0.4-0.88-0.88-0.88c-0.49,0-0.88,0.4-0.88,0.88
				S444.72,231.23,445.21,231.23z"/>
			<circle class="st3" cx="453.83" cy="230.35" r="0.88"/>
			<circle class="st3" cx="462.46" cy="230.35" r="0.88"/>
			<path class="st3" d="M471.08,231.23c0.49,0,0.88-0.4,0.88-0.88s-0.4-0.88-0.88-0.88c-0.49,0-0.88,0.4-0.88,0.88
				S470.59,231.23,471.08,231.23z"/>
			<circle class="st3" cx="324.47" cy="238.97" r="0.88"/>
			<circle class="st3" cx="333.1" cy="238.97" r="0.88"/>
			<circle class="st3" cx="341.72" cy="238.97" r="0.88"/>
			<circle class="st3" cx="350.35" cy="238.97" r="0.88"/>
			<circle class="st3" cx="358.97" cy="238.97" r="0.88"/>
			<circle class="st3" cx="367.59" cy="238.97" r="0.88"/>
			<circle class="st3" cx="376.22" cy="238.97" r="0.88"/>
			<circle class="st3" cx="384.84" cy="238.97" r="0.88"/>
			<circle class="st3" cx="393.47" cy="238.97" r="0.88"/>
			<circle class="st3" cx="402.09" cy="238.97" r="0.88"/>
			<circle class="st3" cx="410.71" cy="238.97" r="0.88"/>
			<path class="st3" d="M419.34,239.86c0.49,0,0.88-0.4,0.88-0.88c0-0.49-0.4-0.88-0.88-0.88c-0.49,0-0.88,0.4-0.88,0.88
				C418.45,239.46,418.85,239.86,419.34,239.86z"/>
			<circle class="st3" cx="427.96" cy="238.97" r="0.88"/>
			<circle class="st3" cx="436.59" cy="238.97" r="0.88"/>
			<path class="st3" d="M445.21,239.86c0.49,0,0.88-0.4,0.88-0.88c0-0.49-0.4-0.88-0.88-0.88c-0.49,0-0.88,0.4-0.88,0.88
				C444.32,239.46,444.72,239.86,445.21,239.86z"/>
			<circle class="st3" cx="453.83" cy="238.97" r="0.88"/>
			<circle class="st3" cx="462.46" cy="238.97" r="0.88"/>
			<path class="st3" d="M471.08,239.86c0.49,0,0.88-0.4,0.88-0.88c0-0.49-0.4-0.88-0.88-0.88c-0.49,0-0.88,0.4-0.88,0.88
				C470.2,239.46,470.59,239.86,471.08,239.86z"/>
			<circle class="st3" cx="324.47" cy="247.6" r="0.88"/>
			<circle class="st3" cx="333.1" cy="247.6" r="0.88"/>
			<circle class="st3" cx="341.72" cy="247.6" r="0.88"/>
			<circle class="st3" cx="350.35" cy="247.6" r="0.88"/>
			<circle class="st3" cx="358.97" cy="247.6" r="0.88"/>
			<circle class="st3" cx="367.59" cy="247.6" r="0.88"/>
			<circle class="st3" cx="376.22" cy="247.6" r="0.88"/>
			<circle class="st3" cx="384.84" cy="247.6" r="0.88"/>
			<circle class="st3" cx="393.47" cy="247.6" r="0.88"/>
			<circle class="st3" cx="402.09" cy="247.6" r="0.88"/>
			<circle class="st3" cx="410.71" cy="247.6" r="0.88"/>
			<path class="st3" d="M419.34,248.48c0.49,0,0.88-0.4,0.88-0.88c0-0.49-0.4-0.88-0.88-0.88c-0.49,0-0.88,0.4-0.88,0.88
				C418.45,248.08,418.85,248.48,419.34,248.48z"/>
			<circle class="st3" cx="427.96" cy="247.6" r="0.88"/>
			<circle class="st3" cx="436.59" cy="247.6" r="0.88"/>
			<path class="st3" d="M445.21,248.48c0.49,0,0.88-0.4,0.88-0.88c0-0.49-0.4-0.88-0.88-0.88c-0.49,0-0.88,0.4-0.88,0.88
				C444.32,248.08,444.72,248.48,445.21,248.48z"/>
			<circle class="st3" cx="453.83" cy="247.6" r="0.88"/>
			<circle class="st3" cx="462.46" cy="247.6" r="0.88"/>
			<path class="st3" d="M471.08,248.48c0.49,0,0.88-0.4,0.88-0.88c0-0.49-0.4-0.88-0.88-0.88c-0.49,0-0.88,0.4-0.88,0.88
				C470.2,248.08,470.59,248.48,471.08,248.48z"/>
			<circle class="st3" cx="324.47" cy="256.22" r="0.88"/>
			<circle class="st3" cx="333.1" cy="256.22" r="0.88"/>
			<circle class="st3" cx="341.72" cy="256.22" r="0.88"/>
			<circle class="st3" cx="350.35" cy="256.22" r="0.88"/>
			<circle class="st3" cx="358.97" cy="256.22" r="0.88"/>
			<circle class="st3" cx="367.59" cy="256.22" r="0.88"/>
			<circle class="st3" cx="376.22" cy="256.22" r="0.88"/>
			<circle class="st3" cx="384.84" cy="256.22" r="0.88"/>
			<circle class="st3" cx="393.47" cy="256.22" r="0.88"/>
			<circle class="st3" cx="402.09" cy="256.22" r="0.88"/>
			<circle class="st3" cx="410.71" cy="256.22" r="0.88"/>
			<path class="st3" d="M419.34,257.1c0.49,0,0.88-0.4,0.88-0.88c0-0.49-0.4-0.88-0.88-0.88c-0.49,0-0.88,0.4-0.88,0.88
				C418.45,256.71,418.85,257.1,419.34,257.1z"/>
			<circle class="st3" cx="427.96" cy="256.22" r="0.88"/>
			<circle class="st3" cx="436.59" cy="256.22" r="0.88"/>
			<path class="st3" d="M445.21,257.1c0.49,0,0.88-0.4,0.88-0.88c0-0.49-0.4-0.88-0.88-0.88c-0.49,0-0.88,0.4-0.88,0.88
				C444.32,256.71,444.72,257.1,445.21,257.1z"/>
			<circle class="st3" cx="453.83" cy="256.22" r="0.88"/>
			<circle class="st3" cx="462.46" cy="256.22" r="0.88"/>
			<path class="st3" d="M471.08,257.1c0.49,0,0.88-0.4,0.88-0.88c0-0.49-0.4-0.88-0.88-0.88c-0.49,0-0.88,0.4-0.88,0.88
				C470.2,256.71,470.59,257.1,471.08,257.1z"/>
		</g>
		<g class="st0">
			<path class="st3" d="M533.02,238.7c-0.19-0.2-0.19-0.51,0-0.71l0,0c0.2-0.2,0.52-0.2,0.71,0l0,0c0.19,0.2,0.19,0.51,0,0.71l0,0
				c-0.1,0.09-0.22,0.14-0.35,0.14l0,0C533.25,238.84,533.12,238.79,533.02,238.7z M529.49,235.16c-0.2-0.2-0.2-0.51,0-0.71l0,0
				c0.19-0.19,0.51-0.19,0.7,0l0,0c0.2,0.2,0.2,0.51,0,0.71l0,0c-0.09,0.1-0.22,0.15-0.35,0.15l0,0
				C529.71,235.31,529.58,235.26,529.49,235.16z M525.95,231.62c-0.19-0.19-0.19-0.51,0-0.7l0,0c0.2-0.2,0.51-0.2,0.71,0l0,0
				c0.19,0.19,0.19,0.51,0,0.7l0,0c-0.1,0.1-0.23,0.15-0.35,0.15l0,0C526.18,231.77,526.05,231.72,525.95,231.62z M522.42,228.09
				c-0.2-0.2-0.2-0.51,0-0.71l0,0c0.19-0.19,0.51-0.19,0.7,0l0,0c0.2,0.2,0.2,0.51,0,0.71l0,0c-0.09,0.1-0.22,0.15-0.35,0.15l0,0
				C522.64,228.24,522.51,228.19,522.42,228.09z M518.88,224.55c-0.19-0.19-0.19-0.51,0-0.7l0,0c0.2-0.2,0.51-0.2,0.71,0l0,0
				c0.19,0.19,0.19,0.51,0,0.7l0,0c-0.1,0.1-0.23,0.15-0.36,0.15l0,0C519.11,224.7,518.98,224.65,518.88,224.55z M515.35,221.02
				c-0.2-0.2-0.2-0.51,0-0.71l0,0c0.19-0.19,0.51-0.19,0.7,0l0,0c0.2,0.2,0.2,0.51,0,0.71l0,0c-0.09,0.1-0.22,0.14-0.35,0.14l0,0
				C515.57,221.16,515.44,221.12,515.35,221.02z M511.81,217.48c-0.19-0.19-0.19-0.51,0-0.7l0,0c0.19-0.2,0.51-0.2,0.71,0l0,0
				c0.19,0.19,0.19,0.51,0,0.7l0,0c-0.1,0.1-0.23,0.15-0.36,0.15l0,0C512.04,217.63,511.91,217.58,511.81,217.48z M508.28,213.95
				c-0.2-0.2-0.2-0.52,0-0.71l0,0c0.19-0.19,0.51-0.19,0.7,0l0,0c0.2,0.19,0.2,0.51,0,0.71l0,0c-0.1,0.1-0.22,0.14-0.35,0.14l0,0
				C508.5,214.09,508.37,214.05,508.28,213.95z M504.74,210.41c-0.2-0.19-0.2-0.51,0-0.71l0,0c0.19-0.19,0.51-0.19,0.71,0l0,0
				c0.19,0.2,0.19,0.52,0,0.71l0,0c-0.1,0.1-0.23,0.15-0.36,0.15l0,0C504.96,210.56,504.84,210.51,504.74,210.41z M501.2,206.88
				c-0.19-0.2-0.19-0.52,0-0.71l0,0c0.2-0.2,0.52-0.2,0.71,0l0,0c0.2,0.19,0.2,0.51,0,0.71l0,0c-0.1,0.09-0.23,0.14-0.35,0.14l0,0
				C501.43,207.02,501.3,206.97,501.2,206.88z M497.67,203.34c-0.2-0.19-0.2-0.51,0-0.71l0,0c0.19-0.19,0.51-0.19,0.71,0l0,0
				c0.19,0.2,0.19,0.52,0,0.71l0,0c-0.1,0.1-0.23,0.15-0.36,0.15l0,0C497.89,203.49,497.77,203.44,497.67,203.34z M494.13,199.8
				c-0.19-0.19-0.19-0.51,0-0.7l0,0c0.2-0.2,0.51-0.2,0.71,0l0,0c0.19,0.19,0.19,0.51,0,0.7l0,0c-0.1,0.1-0.23,0.15-0.35,0.15l0,0
				C494.36,199.95,494.23,199.9,494.13,199.8z M490.6,196.27c-0.2-0.19-0.2-0.51,0-0.71l0,0c0.19-0.19,0.51-0.19,0.7,0l0,0
				c0.2,0.2,0.2,0.52,0,0.71l0,0c-0.09,0.1-0.22,0.15-0.35,0.15l0,0C490.82,196.42,490.7,196.37,490.6,196.27z M487.06,192.73
				c-0.19-0.19-0.19-0.51,0-0.7l0,0c0.2-0.2,0.51-0.2,0.71,0l0,0c0.19,0.19,0.19,0.51,0,0.7l0,0c-0.1,0.1-0.23,0.15-0.36,0.15l0,0
				C487.29,192.88,487.16,192.83,487.06,192.73z M483.52,189.2c-0.19-0.2-0.19-0.51,0-0.71l0,0c0.2-0.19,0.52-0.19,0.71,0l0,0
				c0.2,0.2,0.2,0.51,0,0.71l0,0c-0.1,0.1-0.22,0.14-0.35,0.14l0,0C483.75,189.34,483.62,189.3,483.52,189.2z M479.99,185.66
				c-0.2-0.19-0.2-0.51,0-0.7l0,0c0.2-0.2,0.51-0.2,0.71,0l0,0c0.19,0.19,0.19,0.51,0,0.7l0,0c-0.1,0.1-0.23,0.15-0.36,0.15l0,0
				C480.22,185.81,480.09,185.76,479.99,185.66z M476.45,182.13c-0.19-0.2-0.19-0.52,0-0.71l0,0c0.2-0.2,0.52-0.2,0.71,0l0,0
				c0.2,0.19,0.2,0.51,0,0.71l0,0c-0.1,0.1-0.22,0.14-0.35,0.14l0,0C476.68,182.27,476.55,182.23,476.45,182.13z M472.92,178.59
				c-0.2-0.19-0.2-0.51,0-0.7l0,0c0.2-0.2,0.51-0.2,0.71,0l0,0c0.19,0.19,0.19,0.51,0,0.7l0,0c-0.1,0.1-0.23,0.15-0.36,0.15l0,0
				C473.15,178.74,473.02,178.69,472.92,178.59z M469.38,175.06c-0.19-0.2-0.19-0.52,0-0.71l0,0c0.2-0.19,0.51-0.19,0.71,0l0,0
				c0.2,0.19,0.2,0.51,0,0.71l0,0c-0.1,0.09-0.23,0.14-0.35,0.14l0,0C469.61,175.2,469.48,175.15,469.38,175.06z M465.85,171.52
				c-0.2-0.2-0.2-0.51,0-0.71l0,0c0.19-0.19,0.51-0.19,0.71,0l0,0c0.19,0.2,0.19,0.51,0,0.71l0,0c-0.1,0.1-0.23,0.15-0.36,0.15l0,0
				C466.07,171.67,465.94,171.62,465.85,171.52z M462.31,167.99c-0.19-0.2-0.19-0.52,0-0.71l0,0c0.2-0.2,0.51-0.2,0.71,0l0,0
				c0.2,0.19,0.2,0.51,0,0.71l0,0c-0.1,0.09-0.23,0.14-0.35,0.14l0,0C462.54,168.13,462.41,168.08,462.31,167.99z"/>
		</g>
		<g class="st0">
			<path class="st3" d="M101.95,70.66c-0.26-0.25-0.26-0.67,0-0.94l0,0c0.25-0.25,0.67-0.25,0.94,0l0,0c0.25,0.26,0.25,0.69,0,0.94
				l0,0c-0.13,0.13-0.3,0.2-0.48,0.2l0,0C102.24,70.86,102.08,70.79,101.95,70.66z M97.27,65.99c-0.25-0.26-0.25-0.69,0-0.94l0,0
				c0.26-0.25,0.67-0.25,0.94,0l0,0c0.26,0.25,0.26,0.67,0,0.94l0,0c-0.13,0.13-0.3,0.18-0.46,0.18l0,0
				C97.57,66.17,97.4,66.12,97.27,65.99z M92.6,61.31c-0.26-0.25-0.26-0.68,0-0.93l0,0c0.25-0.26,0.67-0.26,0.94,0l0,0
				c0.25,0.25,0.25,0.68,0,0.93l0,0c-0.13,0.13-0.3,0.2-0.48,0.2l0,0C92.89,61.51,92.72,61.44,92.6,61.31z M87.91,56.64
				c-0.25-0.26-0.25-0.67,0-0.94l0,0c0.26-0.26,0.69-0.26,0.94,0l0,0c0.25,0.26,0.25,0.68,0,0.94l0,0c-0.13,0.12-0.3,0.19-0.46,0.19
				l0,0C88.22,56.82,88.05,56.76,87.91,56.64z M83.23,51.95c-0.25-0.25-0.25-0.67,0-0.94l0,0c0.26-0.25,0.69-0.25,0.94,0l0,0
				c0.26,0.26,0.26,0.69,0,0.94l0,0c-0.12,0.13-0.29,0.2-0.46,0.2l0,0C83.54,52.15,83.36,52.09,83.23,51.95z M78.56,47.27
				c-0.25-0.25-0.25-0.68,0-0.93l0,0c0.26-0.26,0.68-0.26,0.94,0l0,0c0.25,0.25,0.25,0.67,0,0.93l0,0c-0.13,0.13-0.3,0.2-0.48,0.2
				l0,0C78.86,47.47,78.69,47.4,78.56,47.27z M73.89,42.6c-0.26-0.26-0.26-0.67,0-0.94l0,0c0.25-0.25,0.67-0.25,0.93,0l0,0
				c0.26,0.26,0.26,0.67,0,0.94l0,0c-0.12,0.13-0.29,0.2-0.46,0.2l0,0C74.18,42.8,74.01,42.73,73.89,42.6z M69.21,37.92
				c-0.26-0.25-0.26-0.67,0-0.93l0,0c0.26-0.26,0.67-0.26,0.94,0l0,0c0.25,0.25,0.25,0.67,0,0.93l0,0c-0.13,0.13-0.3,0.2-0.48,0.2
				l0,0C69.51,38.12,69.34,38.05,69.21,37.92z M64.52,33.25c-0.25-0.26-0.25-0.68,0-0.94l0,0c0.26-0.25,0.69-0.25,0.94,0l0,0
				c0.26,0.26,0.26,0.67,0,0.94l0,0c-0.13,0.13-0.29,0.18-0.46,0.18l0,0C64.83,33.43,64.66,33.38,64.52,33.25z M59.85,28.56
				c-0.25-0.25-0.25-0.67,0-0.94l0,0c0.25-0.25,0.67-0.25,0.93,0l0,0c0.26,0.26,0.26,0.69,0,0.94l0,0c-0.12,0.13-0.29,0.2-0.46,0.2
				l0,0C60.14,28.76,59.99,28.7,59.85,28.56z M55.17,23.89c-0.25-0.26-0.25-0.67,0-0.94l0,0c0.26-0.25,0.69-0.25,0.94,0l0,0
				c0.25,0.26,0.25,0.68,0,0.94l0,0c-0.13,0.13-0.29,0.2-0.46,0.2l0,0C55.48,24.09,55.3,24.03,55.17,23.89z M50.5,19.21
				c-0.26-0.25-0.26-0.67,0-0.93l0,0c0.25-0.26,0.68-0.26,0.94,0l0,0c0.25,0.25,0.25,0.67,0,0.93l0,0c-0.13,0.13-0.3,0.2-0.48,0.2
				l0,0C50.79,19.41,50.62,19.34,50.5,19.21z M45.82,14.54c-0.25-0.26-0.25-0.69,0-0.94l0,0c0.26-0.26,0.68-0.26,0.94,0l0,0
				c0.25,0.25,0.25,0.67,0,0.94l0,0c-0.13,0.12-0.3,0.19-0.46,0.19l0,0C46.12,14.73,45.95,14.66,45.82,14.54z M41.13,9.86
				c-0.25-0.26-0.25-0.67,0-0.94l0,0c0.26-0.25,0.69-0.25,0.94,0l0,0c0.26,0.26,0.26,0.67,0,0.94l0,0c-0.12,0.13-0.29,0.2-0.46,0.2
				l0,0C41.44,10.06,41.27,9.99,41.13,9.86z M36.46,5.17c-0.25-0.25-0.25-0.67,0-0.93l0,0c0.26-0.26,0.67-0.26,0.94,0l0,0
				c0.25,0.25,0.25,0.67,0,0.93l0,0c-0.13,0.13-0.3,0.2-0.48,0.2l0,0C36.77,5.37,36.6,5.31,36.46,5.17z M31.79,0.5
				c-0.26-0.25-0.26-0.68,0-0.94l0,0c0.25-0.25,0.67-0.25,0.93,0l0,0c0.26,0.26,0.26,0.69,0,0.94l0,0c-0.12,0.13-0.29,0.2-0.46,0.2
				l0,0C32.08,0.7,31.91,0.64,31.79,0.5z M27.11-4.17c-0.26-0.26-0.26-0.69,0-0.94l0,0c0.26-0.26,0.67-0.26,0.94,0l0,0
				c0.25,0.25,0.25,0.68,0,0.94l0,0c-0.13,0.12-0.3,0.19-0.48,0.19l0,0C27.41-3.98,27.24-4.05,27.11-4.17z M22.43-8.85
				c-0.25-0.26-0.25-0.67,0-0.94l0,0c0.26-0.25,0.69-0.25,0.94,0l0,0c0.26,0.26,0.26,0.68,0,0.94l0,0
				c-0.13,0.13-0.29,0.19-0.46,0.19l0,0C22.73-8.66,22.56-8.72,22.43-8.85z M17.76-13.53c-0.25-0.25-0.25-0.67,0-0.93l0,0
				c0.25-0.26,0.68-0.26,0.94,0l0,0c0.25,0.25,0.25,0.67,0,0.93l0,0c-0.13,0.13-0.3,0.2-0.48,0.2l0,0
				C18.05-13.33,17.89-13.4,17.76-13.53z"/>
		</g>
		<g class="st0">
			<g>
				<g>
					<g>
						<path class="st1" d="M56.37,262.57c-0.13,0-0.26-0.05-0.35-0.15l-8.59-8.59c-0.2-0.2-0.2-0.51,0-0.71c0.2-0.2,0.51-0.2,0.71,0
							l8.59,8.59c0.2,0.2,0.2,0.51,0,0.71C56.63,262.53,56.5,262.57,56.37,262.57z"/>
					</g>
					<g>
						<path class="st1" d="M47.78,262.57c-0.13,0-0.26-0.05-0.35-0.15c-0.2-0.2-0.2-0.51,0-0.71l8.59-8.59c0.2-0.2,0.51-0.2,0.71,0
							c0.2,0.2,0.2,0.51,0,0.71l-8.59,8.59C48.04,262.53,47.91,262.57,47.78,262.57z"/>
					</g>
				</g>
			</g>
			<g>
				<g>
					<g>
						<path class="st1" d="M445.42,105.08c-0.13,0-0.26-0.05-0.35-0.15l-8.59-8.59c-0.2-0.2-0.2-0.51,0-0.71
							c0.2-0.2,0.51-0.2,0.71,0l8.59,8.59c0.2,0.2,0.2,0.51,0,0.71C445.68,105.03,445.55,105.08,445.42,105.08z"/>
					</g>
					<g>
						<path class="st1" d="M436.83,105.08c-0.13,0-0.26-0.05-0.35-0.15c-0.2-0.2-0.2-0.51,0-0.71l8.59-8.59c0.2-0.2,0.51-0.2,0.71,0
							c0.2,0.2,0.2,0.51,0,0.71l-8.59,8.59C437.09,105.03,436.96,105.08,436.83,105.08z"/>
					</g>
				</g>
			</g>
		</g>
		<g class="st0">
			<g>
				<g>
					<g>
						<path class="st4" d="M60.89,65.22c-2.57,0-4.67-2.09-4.67-4.67c0-2.57,2.09-4.67,4.67-4.67s4.67,2.09,4.67,4.67
							C65.55,63.13,63.46,65.22,60.89,65.22z M60.89,56.89c-2.02,0-3.67,1.65-3.67,3.67c0,2.02,1.64,3.67,3.67,3.67
							c2.02,0,3.67-1.64,3.67-3.67C64.55,58.53,62.91,56.89,60.89,56.89z"/>
					</g>
				</g>
			</g>
			<g>
				<g>
					<g>
						<path class="st4" d="M465.07,208.79c-2.57,0-4.67-2.09-4.67-4.67c0-2.57,2.09-4.67,4.67-4.67c2.57,0,4.67,2.09,4.67,4.67
							C469.74,206.7,467.65,208.79,465.07,208.79z M465.07,200.46c-2.02,0-3.67,1.64-3.67,3.67c0,2.02,1.64,3.67,3.67,3.67
							c2.02,0,3.67-1.64,3.67-3.67C468.74,202.1,467.1,200.46,465.07,200.46z"/>
					</g>
				</g>
			</g>
		</g>
		<g class="st0">
			<path class="st3" d="M18.09,145.49c0-0.51,0.41-0.92,0.92-0.92l0,0c0.51,0,0.92,0.41,0.92,0.92l0,0c0,0.51-0.41,0.92-0.92,0.92
				l0,0C18.51,146.41,18.09,146,18.09,145.49z M18.09,138.1c0-0.51,0.41-0.92,0.92-0.92l0,0c0.51,0,0.92,0.41,0.92,0.92l0,0
				c0,0.5-0.41,0.92-0.92,0.92l0,0C18.51,139.02,18.09,138.61,18.09,138.1z M18.09,130.72c0-0.51,0.41-0.92,0.92-0.92l0,0
				c0.51,0,0.92,0.41,0.92,0.92l0,0c0,0.51-0.41,0.92-0.92,0.92l0,0C18.51,131.64,18.09,131.23,18.09,130.72z M18.09,123.33
				c0-0.51,0.41-0.92,0.92-0.92l0,0c0.51,0,0.92,0.41,0.92,0.92l0,0c0,0.51-0.41,0.92-0.92,0.92l0,0
				C18.51,124.26,18.09,123.84,18.09,123.33z"/>
		</g>
	</g>
</g>
</svg>
