<?xml version="1.0" encoding="utf-8"?>
<!-- Generator: Adobe Illustrator 24.1.1, SVG Export Plug-In . SVG Version: 6.00 Build 0)  -->
<svg version="1.1" xmlns="http://www.w3.org/2000/svg" xmlns:xlink="http://www.w3.org/1999/xlink" x="0px" y="0px"
	 viewBox="0 0 500 300" style="enable-background:new 0 0 500 300;" xml:space="preserve">
<style type="text/css">
	.st0{fill:#262626;}
	.st1{clip-path:url(#SVGID_2_);}
	.st2{fill:#2C2C2C;}
	.st3{fill:#202020;}
	.st4{fill:#282828;}
	.st5{fill:#0F0F0F;}
	.st6{fill:#1C1C1C;}
	.st7{fill:#222222;}
	.st8{fill:#1F1F1F;}
	.st9{fill:#0C0C0C;}
	.st10{fill:#151515;}
	.st11{fill:#0B0B0B;}
	.st12{fill:#161616;}
	.st13{fill:#292929;}
	.st14{fill:#121212;}
	.st15{fill:#1E1E1E;}
	.st16{fill:#131313;}
	.st17{fill:#181818;}
	.st18{fill:#1A1A1A;}
	.st19{fill:#101010;}
	.st20{fill:#272727;}
	.st21{fill:#242424;}
	.st22{fill:#0E0E0E;}
	.st23{fill:#0A0A0A;}
	.st24{fill:#2B2B2B;}
	.st25{fill:#141414;}
	.st26{fill:#1D1D1D;}
	.st27{fill:#252525;}
	.st28{fill:#0D0D0D;}
	.st29{fill:#111111;}
	.st30{fill:#191919;}
	.st31{fill:#171717;}
	.st32{fill:#2A2A2A;}
	.st33{fill:#232323;}
	.st34{fill:#1B1B1B;}
	.st35{fill:#212121;}
	.st36{fill:#2D2D2D;}
</style>
<g id="BACKGROUND">
	<rect class="st0" width="500" height="300"/>
</g>
<g id="OBJECT">
	<g>
		<defs>
			<rect id="SVGID_1_" width="500" height="300"/>
		</defs>
		<clipPath id="SVGID_2_">
			<use xlink:href="#SVGID_1_"  style="overflow:visible;"/>
		</clipPath>
		<g class="st1">
			<polygon class="st2" points="-15.82,-9.49 5.45,11.77 5.45,11.77 5.45,-30.76 			"/>
			<polygon class="st3" points="5.45,-30.76 5.45,11.77 26.71,-9.49 			"/>
			<polygon class="st4" points="26.71,-9.49 47.98,11.77 47.98,11.77 47.98,-30.76 			"/>
			<polygon class="st5" points="47.98,-30.76 47.98,11.77 69.24,-9.49 			"/>
			<polygon class="st6" points="69.24,-9.49 90.51,11.77 90.51,11.77 90.51,-30.76 			"/>
			<polygon class="st7" points="90.51,-30.76 90.51,11.77 111.77,-9.49 			"/>
			<polygon class="st8" points="111.77,-9.49 133.04,11.77 133.04,11.77 133.04,-30.76 			"/>
			<polygon class="st9" points="133.04,-30.76 133.04,11.77 154.31,-9.49 			"/>
			<polygon class="st2" points="154.31,-9.49 175.57,11.77 175.57,11.77 175.57,-30.76 			"/>
			<polygon class="st10" points="175.57,-30.76 175.57,11.77 196.84,-9.49 			"/>
			<polygon class="st0" points="196.84,-9.49 218.1,11.77 218.1,11.77 218.1,-30.76 			"/>
			<polygon class="st11" points="218.1,-30.76 218.1,11.77 239.37,-9.49 			"/>
			<polygon class="st12" points="239.37,-9.49 260.63,11.77 260.63,11.77 260.63,-30.76 			"/>
			<polygon class="st13" points="260.63,-30.76 260.63,11.77 281.9,-9.49 			"/>
			<polygon class="st13" points="281.9,-9.49 303.16,11.77 303.16,11.77 303.16,-30.76 			"/>
			<polygon class="st7" points="303.16,-30.76 303.16,11.77 324.43,-9.49 			"/>
			<polygon class="st14" points="324.43,-9.49 345.69,11.77 345.69,11.77 345.69,-30.76 			"/>
			<polygon class="st15" points="345.69,-30.76 345.69,11.77 366.96,-9.49 			"/>
			<polygon class="st16" points="366.96,-9.49 388.23,11.77 388.23,11.77 388.23,-30.76 			"/>
			<polygon class="st9" points="388.23,-30.76 388.23,11.77 409.49,-9.49 			"/>
			<polygon class="st17" points="409.49,-9.49 430.76,11.77 430.76,11.77 430.76,-30.76 			"/>
			<polygon class="st18" points="430.76,-30.76 430.76,11.77 452.02,-9.49 			"/>
			<polygon class="st19" points="452.02,-9.49 473.29,11.77 473.29,11.77 473.29,-30.76 			"/>
			<polygon class="st0" points="473.29,-30.76 473.29,11.77 494.55,-9.49 			"/>
			<polygon class="st20" points="494.55,-9.49 515.82,11.77 515.82,11.77 515.82,-30.76 			"/>
			<polygon class="st17" points="515.82,-30.76 515.82,11.77 537.08,-9.49 			"/>
			<polygon class="st4" points="-37.08,11.77 -15.82,33.04 -15.82,33.04 -15.82,-9.49 			"/>
			<polygon class="st21" points="-15.82,-9.49 -15.82,33.04 5.45,11.77 			"/>
			<polygon class="st22" points="5.45,11.77 26.71,33.04 26.71,33.04 26.71,-9.49 			"/>
			<polygon class="st23" points="26.71,-9.49 26.71,33.04 47.98,11.77 			"/>
			<polygon class="st9" points="47.98,11.77 69.24,33.04 69.24,33.04 69.24,-9.49 			"/>
			<polygon class="st24" points="69.24,-9.49 69.24,33.04 90.51,11.77 			"/>
			<polygon class="st25" points="90.51,11.77 111.77,33.04 111.77,33.04 111.77,-9.49 			"/>
			<polygon class="st19" points="111.77,-9.49 111.77,33.04 133.04,11.77 			"/>
			<polygon class="st6" points="133.04,11.77 154.31,33.04 154.31,33.04 154.31,-9.49 			"/>
			<polygon class="st0" points="154.31,-9.49 154.31,33.04 175.57,11.77 			"/>
			<polygon class="st15" points="175.57,11.77 196.84,33.04 196.84,33.04 196.84,-9.49 			"/>
			<polygon class="st26" points="196.84,-9.49 196.84,33.04 218.1,11.77 			"/>
			<polygon class="st27" points="218.1,11.77 239.37,33.04 239.37,33.04 239.37,-9.49 			"/>
			<polygon class="st14" points="239.37,-9.49 239.37,33.04 260.63,11.77 			"/>
			<polygon class="st6" points="260.63,11.77 281.9,33.04 281.9,33.04 281.9,-9.49 			"/>
			<polygon class="st7" points="281.9,-9.49 281.9,33.04 303.16,11.77 			"/>
			<polygon class="st17" points="303.16,11.77 324.43,33.04 324.43,33.04 324.43,-9.49 			"/>
			<polygon class="st9" points="324.43,-9.49 324.43,33.04 345.69,11.77 			"/>
			<polygon class="st16" points="345.69,11.77 366.96,33.04 366.96,33.04 366.96,-9.49 			"/>
			<polygon class="st28" points="366.96,-9.49 366.96,33.04 388.23,11.77 			"/>
			<polygon class="st16" points="388.23,11.77 409.49,33.04 409.49,33.04 409.49,-9.49 			"/>
			<polygon class="st13" points="409.49,-9.49 409.49,33.04 430.76,11.77 			"/>
			<polygon class="st16" points="430.76,11.77 452.02,33.04 452.02,33.04 452.02,-9.49 			"/>
			<polygon class="st7" points="452.02,-9.49 452.02,33.04 473.29,11.77 			"/>
			<polygon class="st11" points="473.29,11.77 494.55,33.04 494.55,33.04 494.55,-9.49 			"/>
			<polygon class="st11" points="494.55,-9.49 494.55,33.04 515.82,11.77 			"/>
			<polygon class="st7" points="-15.82,33.04 5.45,54.31 5.45,54.31 5.45,11.77 			"/>
			<polygon class="st14" points="5.45,11.77 5.45,54.31 26.71,33.04 			"/>
			<polygon class="st16" points="26.71,33.04 47.98,54.31 47.98,54.31 47.98,11.77 			"/>
			<polygon class="st2" points="47.98,11.77 47.98,54.31 69.24,33.04 			"/>
			<polygon class="st29" points="69.24,33.04 90.51,54.31 90.51,54.31 90.51,11.77 			"/>
			<polygon class="st22" points="90.51,11.77 90.51,54.31 111.77,33.04 			"/>
			<polygon class="st15" points="111.77,33.04 133.04,54.31 133.04,54.31 133.04,11.77 			"/>
			<polygon class="st10" points="133.04,11.77 133.04,54.31 154.31,33.04 			"/>
			<polygon class="st6" points="154.31,33.04 175.57,54.31 175.57,54.31 175.57,11.77 			"/>
			<polygon class="st11" points="175.57,11.77 175.57,54.31 196.84,33.04 			"/>
			<polygon class="st0" points="196.84,33.04 218.1,54.31 218.1,54.31 218.1,11.77 			"/>
			<polygon class="st23" points="218.1,11.77 218.1,54.31 239.37,33.04 			"/>
			<polygon class="st7" points="239.37,33.04 260.63,54.31 260.63,54.31 260.63,11.77 			"/>
			<polygon class="st24" points="260.63,11.77 260.63,54.31 281.9,33.04 			"/>
			<polygon class="st16" points="281.9,33.04 303.16,54.31 303.16,54.31 303.16,11.77 			"/>
			<polygon class="st25" points="303.16,11.77 303.16,54.31 324.43,33.04 			"/>
			<polygon class="st30" points="324.43,33.04 345.69,54.31 345.69,54.31 345.69,11.77 			"/>
			<polygon class="st27" points="345.69,11.77 345.69,54.31 366.96,33.04 			"/>
			<polygon class="st6" points="366.96,33.04 388.23,54.31 388.23,54.31 388.23,11.77 			"/>
			<polygon class="st16" points="388.23,11.77 388.23,54.31 409.49,33.04 			"/>
			<polygon class="st5" points="409.49,33.04 430.76,54.31 430.76,54.31 430.76,11.77 			"/>
			<polygon class="st8" points="430.76,11.77 430.76,54.31 452.02,33.04 			"/>
			<polygon class="st4" points="452.02,33.04 473.29,54.31 473.29,54.31 473.29,11.77 			"/>
			<polygon class="st27" points="473.29,11.77 473.29,54.31 494.55,33.04 			"/>
			<polygon class="st12" points="494.55,33.04 515.82,54.31 515.82,54.31 515.82,11.77 			"/>
			<polygon class="st19" points="515.82,11.77 515.82,54.31 537.08,33.04 			"/>
			<polygon class="st14" points="-37.08,54.31 -15.82,75.57 -15.82,75.57 -15.82,33.04 			"/>
			<polygon class="st31" points="-15.82,33.04 -15.82,75.57 5.45,54.31 			"/>
			<polygon class="st32" points="5.45,54.31 26.71,75.57 26.71,75.57 26.71,33.04 			"/>
			<polygon class="st22" points="26.71,33.04 26.71,75.57 47.98,54.31 			"/>
			<polygon class="st25" points="47.98,54.31 69.24,75.57 69.24,75.57 69.24,33.04 			"/>
			<polygon class="st2" points="69.24,33.04 69.24,75.57 90.51,54.31 			"/>
			<polygon class="st20" points="90.51,54.31 111.77,75.57 111.77,75.57 111.77,33.04 			"/>
			<polygon class="st10" points="111.77,33.04 111.77,75.57 133.04,54.31 			"/>
			<polygon class="st33" points="133.04,54.31 154.31,75.57 154.31,75.57 154.31,33.04 			"/>
			<polygon class="st24" points="154.31,33.04 154.31,75.57 175.57,54.31 			"/>
			<polygon class="st22" points="175.57,54.31 196.84,75.57 196.84,75.57 196.84,33.04 			"/>
			<polygon class="st20" points="196.84,33.04 196.84,75.57 218.1,54.31 			"/>
			<polygon class="st30" points="218.1,54.31 239.37,75.57 239.37,75.57 239.37,33.04 			"/>
			<polygon class="st30" points="239.37,33.04 239.37,75.57 260.63,54.31 			"/>
			<polygon class="st10" points="260.63,54.31 281.9,75.57 281.9,75.57 281.9,33.04 			"/>
			<polygon class="st19" points="281.9,33.04 281.9,75.57 303.16,54.31 			"/>
			<polygon class="st26" points="303.16,54.31 324.43,75.57 324.43,75.57 324.43,33.04 			"/>
			<polygon class="st26" points="324.43,33.04 324.43,75.57 345.69,54.31 			"/>
			<polygon class="st34" points="345.69,54.31 366.96,75.57 366.96,75.57 366.96,33.04 			"/>
			<polygon class="st33" points="366.96,33.04 366.96,75.57 388.23,54.31 			"/>
			<polygon class="st11" points="388.23,54.31 409.49,75.57 409.49,75.57 409.49,33.04 			"/>
			<polygon class="st19" points="409.49,33.04 409.49,75.57 430.76,54.31 			"/>
			<polygon class="st21" points="430.76,54.31 452.02,75.57 452.02,75.57 452.02,33.04 			"/>
			<polygon class="st21" points="452.02,33.04 452.02,75.57 473.29,54.31 			"/>
			<polygon class="st32" points="473.29,54.31 494.55,75.57 494.55,75.57 494.55,33.04 			"/>
			<polygon class="st25" points="494.55,33.04 494.55,75.57 515.82,54.31 			"/>
			<polygon class="st7" points="-15.82,75.57 5.45,96.84 5.45,96.84 5.45,54.31 			"/>
			<polygon class="st10" points="5.45,54.31 5.45,96.84 26.71,75.57 			"/>
			<polygon class="st3" points="26.71,75.57 47.98,96.84 47.98,96.84 47.98,54.31 			"/>
			<polygon class="st24" points="47.98,54.31 47.98,96.84 69.24,75.57 			"/>
			<polygon class="st12" points="69.24,75.57 90.51,96.84 90.51,96.84 90.51,54.31 			"/>
			<polygon class="st20" points="90.51,54.31 90.51,96.84 111.77,75.57 			"/>
			<polygon class="st0" points="111.77,75.57 133.04,96.84 133.04,96.84 133.04,54.31 			"/>
			<polygon class="st31" points="133.04,54.31 133.04,96.84 154.31,75.57 			"/>
			<polygon class="st17" points="154.31,75.57 175.57,96.84 175.57,96.84 175.57,54.31 			"/>
			<polygon class="st17" points="175.57,54.31 175.57,96.84 196.84,75.57 			"/>
			<polygon class="st27" points="196.84,75.57 218.1,96.84 218.1,96.84 218.1,54.31 			"/>
			<polygon class="st15" points="218.1,54.31 218.1,96.84 239.37,75.57 			"/>
			<polygon class="st19" points="239.37,75.57 260.63,96.84 260.63,96.84 260.63,54.31 			"/>
			<polygon class="st6" points="260.63,54.31 260.63,96.84 281.9,75.57 			"/>
			<polygon class="st19" points="281.9,75.57 303.16,96.84 303.16,96.84 303.16,54.31 			"/>
			<polygon class="st0" points="303.16,54.31 303.16,96.84 324.43,75.57 			"/>
			<polygon class="st21" points="324.43,75.57 345.69,96.84 345.69,96.84 345.69,54.31 			"/>
			<polygon class="st28" points="345.69,54.31 345.69,96.84 366.96,75.57 			"/>
			<polygon class="st29" points="366.96,75.57 388.23,96.84 388.23,96.84 388.23,54.31 			"/>
			<polygon class="st30" points="388.23,54.31 388.23,96.84 409.49,75.57 			"/>
			<polygon class="st25" points="409.49,75.57 430.76,96.84 430.76,96.84 430.76,54.31 			"/>
			<polygon class="st28" points="430.76,54.31 430.76,96.84 452.02,75.57 			"/>
			<polygon class="st10" points="452.02,75.57 473.29,96.84 473.29,96.84 473.29,54.31 			"/>
			<polygon class="st9" points="473.29,54.31 473.29,96.84 494.55,75.57 			"/>
			<polygon class="st33" points="494.55,75.57 515.82,96.84 515.82,96.84 515.82,54.31 			"/>
			<polygon class="st27" points="515.82,54.31 515.82,96.84 537.08,75.57 			"/>
			<polygon class="st31" points="-37.08,96.84 -15.82,118.1 -15.82,118.1 -15.82,75.57 			"/>
			<polygon class="st14" points="-15.82,75.57 -15.82,118.1 5.45,96.84 			"/>
			<polygon class="st8" points="5.45,96.84 26.71,118.1 26.71,118.1 26.71,75.57 			"/>
			<polygon class="st7" points="26.71,75.57 26.71,118.1 47.98,96.84 			"/>
			<polygon class="st19" points="47.98,96.84 69.24,118.1 69.24,118.1 69.24,75.57 			"/>
			<polygon class="st29" points="69.24,75.57 69.24,118.1 90.51,96.84 			"/>
			<polygon class="st27" points="90.51,96.84 111.77,118.1 111.77,118.1 111.77,75.57 			"/>
			<polygon class="st8" points="111.77,75.57 111.77,118.1 133.04,96.84 			"/>
			<polygon class="st27" points="133.04,96.84 154.31,118.1 154.31,118.1 154.31,75.57 			"/>
			<polygon class="st18" points="154.31,75.57 154.31,118.1 175.57,96.84 			"/>
			<polygon class="st5" points="175.57,96.84 196.84,118.1 196.84,118.1 196.84,75.57 			"/>
			<polygon class="st7" points="196.84,75.57 196.84,118.1 218.1,96.84 			"/>
			<polygon class="st9" points="218.1,96.84 239.37,118.1 239.37,118.1 239.37,75.57 			"/>
			<polygon class="st0" points="239.37,75.57 239.37,118.1 260.63,96.84 			"/>
			<polygon class="st35" points="260.63,96.84 281.9,118.1 281.9,118.1 281.9,75.57 			"/>
			<polygon class="st18" points="281.9,75.57 281.9,118.1 303.16,96.84 			"/>
			<polygon class="st27" points="303.16,96.84 324.43,118.1 324.43,118.1 324.43,75.57 			"/>
			<polygon class="st8" points="324.43,75.57 324.43,118.1 345.69,96.84 			"/>
			<polygon class="st17" points="345.69,96.84 366.96,118.1 366.96,118.1 366.96,75.57 			"/>
			<polygon class="st15" points="366.96,75.57 366.96,118.1 388.23,96.84 			"/>
			<polygon class="st12" points="388.23,96.84 409.49,118.1 409.49,118.1 409.49,75.57 			"/>
			<polygon class="st14" points="409.49,75.57 409.49,118.1 430.76,96.84 			"/>
			<polygon class="st19" points="430.76,96.84 452.02,118.1 452.02,118.1 452.02,75.57 			"/>
			<polygon class="st21" points="452.02,75.57 452.02,118.1 473.29,96.84 			"/>
			<polygon class="st19" points="473.29,96.84 494.55,118.1 494.55,118.1 494.55,75.57 			"/>
			<polygon class="st20" points="494.55,75.57 494.55,118.1 515.82,96.84 			"/>
			<polygon class="st26" points="-15.82,118.1 5.45,139.37 5.45,139.37 5.45,96.84 			"/>
			<polygon class="st10" points="5.45,96.84 5.45,139.37 26.71,118.1 			"/>
			<polygon class="st5" points="26.71,118.1 47.98,139.37 47.98,139.37 47.98,96.84 			"/>
			<polygon class="st20" points="47.98,96.84 47.98,139.37 69.24,118.1 			"/>
			<polygon class="st29" points="69.24,118.1 90.51,139.37 90.51,139.37 90.51,96.84 			"/>
			<polygon class="st21" points="90.51,96.84 90.51,139.37 111.77,118.1 			"/>
			<polygon class="st25" points="111.77,118.1 133.04,139.37 133.04,139.37 133.04,96.84 			"/>
			<polygon class="st12" points="133.04,96.84 133.04,139.37 154.31,118.1 			"/>
			<polygon class="st14" points="154.31,118.1 175.57,139.37 175.57,139.37 175.57,96.84 			"/>
			<polygon class="st27" points="175.57,96.84 175.57,139.37 196.84,118.1 			"/>
			<polygon class="st18" points="196.84,118.1 218.1,139.37 218.1,139.37 218.1,96.84 			"/>
			<polygon class="st26" points="218.1,96.84 218.1,139.37 239.37,118.1 			"/>
			<polygon class="st27" points="239.37,118.1 260.63,139.37 260.63,139.37 260.63,96.84 			"/>
			<polygon class="st26" points="260.63,96.84 260.63,139.37 281.9,118.1 			"/>
			<polygon class="st20" points="281.9,118.1 303.16,139.37 303.16,139.37 303.16,96.84 			"/>
			<polygon class="st30" points="303.16,96.84 303.16,139.37 324.43,118.1 			"/>
			<polygon class="st11" points="324.43,118.1 345.69,139.37 345.69,139.37 345.69,96.84 			"/>
			<polygon class="st16" points="345.69,96.84 345.69,139.37 366.96,118.1 			"/>
			<polygon class="st28" points="366.96,118.1 388.23,139.37 388.23,139.37 388.23,96.84 			"/>
			<polygon class="st29" points="388.23,96.84 388.23,139.37 409.49,118.1 			"/>
			<polygon class="st31" points="409.49,118.1 430.76,139.37 430.76,139.37 430.76,96.84 			"/>
			<polygon class="st3" points="430.76,96.84 430.76,139.37 452.02,118.1 			"/>
			<polygon class="st9" points="452.02,118.1 473.29,139.37 473.29,139.37 473.29,96.84 			"/>
			<polygon class="st22" points="473.29,96.84 473.29,139.37 494.55,118.1 			"/>
			<polygon class="st31" points="494.55,118.1 515.82,139.37 515.82,139.37 515.82,96.84 			"/>
			<polygon class="st11" points="515.82,96.84 515.82,139.37 537.08,118.1 			"/>
			<polygon class="st13" points="-37.08,139.37 -15.82,160.63 -15.82,160.63 -15.82,118.1 			"/>
			<polygon class="st26" points="-15.82,118.1 -15.82,160.63 5.45,139.37 			"/>
			<polygon class="st5" points="5.45,139.37 26.71,160.63 26.71,160.63 26.71,118.1 			"/>
			<polygon class="st5" points="26.71,118.1 26.71,160.63 47.98,139.37 			"/>
			<polygon class="st5" points="47.98,139.37 69.24,160.63 69.24,160.63 69.24,118.1 			"/>
			<polygon class="st16" points="69.24,118.1 69.24,160.63 90.51,139.37 			"/>
			<polygon class="st18" points="90.51,139.37 111.77,160.63 111.77,160.63 111.77,118.1 			"/>
			<polygon class="st12" points="111.77,118.1 111.77,160.63 133.04,139.37 			"/>
			<polygon class="st19" points="133.04,139.37 154.31,160.63 154.31,160.63 154.31,118.1 			"/>
			<polygon class="st33" points="154.31,118.1 154.31,160.63 175.57,139.37 			"/>
			<polygon class="st8" points="175.57,139.37 196.84,160.63 196.84,160.63 196.84,118.1 			"/>
			<polygon class="st3" points="196.84,118.1 196.84,160.63 218.1,139.37 			"/>
			<polygon class="st31" points="218.1,139.37 239.37,160.63 239.37,160.63 239.37,118.1 			"/>
			<polygon class="st15" points="239.37,118.1 239.37,160.63 260.63,139.37 			"/>
			<polygon class="st19" points="260.63,139.37 281.9,160.63 281.9,160.63 281.9,118.1 			"/>
			<polygon class="st9" points="281.9,118.1 281.9,160.63 303.16,139.37 			"/>
			<polygon class="st11" points="303.16,139.37 324.43,160.63 324.43,160.63 324.43,118.1 			"/>
			<polygon class="st30" points="324.43,118.1 324.43,160.63 345.69,139.37 			"/>
			<polygon class="st24" points="345.69,139.37 366.96,160.63 366.96,160.63 366.96,118.1 			"/>
			<polygon class="st35" points="366.96,118.1 366.96,160.63 388.23,139.37 			"/>
			<polygon class="st4" points="388.23,139.37 409.49,160.63 409.49,160.63 409.49,118.1 			"/>
			<polygon class="st28" points="409.49,118.1 409.49,160.63 430.76,139.37 			"/>
			<polygon class="st30" points="430.76,139.37 452.02,160.63 452.02,160.63 452.02,118.1 			"/>
			<polygon class="st32" points="452.02,118.1 452.02,160.63 473.29,139.37 			"/>
			<polygon class="st2" points="473.29,139.37 494.55,160.63 494.55,160.63 494.55,118.1 			"/>
			<polygon class="st0" points="494.55,118.1 494.55,160.63 515.82,139.37 			"/>
			<polygon class="st28" points="-15.82,160.63 5.45,181.9 5.45,181.9 5.45,139.37 			"/>
			<polygon class="st7" points="5.45,139.37 5.45,181.9 26.71,160.63 			"/>
			<polygon class="st11" points="26.71,160.63 47.98,181.9 47.98,181.9 47.98,139.37 			"/>
			<polygon class="st29" points="47.98,139.37 47.98,181.9 69.24,160.63 			"/>
			<polygon class="st12" points="69.24,160.63 90.51,181.9 90.51,181.9 90.51,139.37 			"/>
			<polygon class="st30" points="90.51,139.37 90.51,181.9 111.77,160.63 			"/>
			<polygon class="st8" points="111.77,160.63 133.04,181.9 133.04,181.9 133.04,139.37 			"/>
			<polygon class="st0" points="133.04,139.37 133.04,181.9 154.31,160.63 			"/>
			<polygon class="st10" points="154.31,160.63 175.57,181.9 175.57,181.9 175.57,139.37 			"/>
			<polygon class="st36" points="175.57,139.37 175.57,181.9 196.84,160.63 			"/>
			<polygon class="st30" points="196.84,160.63 218.1,181.9 218.1,181.9 218.1,139.37 			"/>
			<polygon class="st6" points="218.1,139.37 218.1,181.9 239.37,160.63 			"/>
			<polygon class="st35" points="239.37,160.63 260.63,181.9 260.63,181.9 260.63,139.37 			"/>
			<polygon class="st6" points="260.63,139.37 260.63,181.9 281.9,160.63 			"/>
			<polygon class="st6" points="281.9,160.63 303.16,181.9 303.16,181.9 303.16,139.37 			"/>
			<polygon class="st25" points="303.16,139.37 303.16,181.9 324.43,160.63 			"/>
			<polygon class="st25" points="324.43,160.63 345.69,181.9 345.69,181.9 345.69,139.37 			"/>
			<polygon class="st24" points="345.69,139.37 345.69,181.9 366.96,160.63 			"/>
			<polygon class="st33" points="366.96,160.63 388.23,181.9 388.23,181.9 388.23,139.37 			"/>
			<polygon class="st5" points="388.23,139.37 388.23,181.9 409.49,160.63 			"/>
			<polygon class="st12" points="409.49,160.63 430.76,181.9 430.76,181.9 430.76,139.37 			"/>
			<polygon class="st6" points="430.76,139.37 430.76,181.9 452.02,160.63 			"/>
			<polygon class="st22" points="452.02,160.63 473.29,181.9 473.29,181.9 473.29,139.37 			"/>
			<polygon class="st33" points="473.29,139.37 473.29,181.9 494.55,160.63 			"/>
			<polygon class="st14" points="494.55,160.63 515.82,181.9 515.82,181.9 515.82,139.37 			"/>
			<polygon class="st4" points="515.82,139.37 515.82,181.9 537.08,160.63 			"/>
			<polygon class="st18" points="-37.08,181.9 -15.82,203.16 -15.82,203.16 -15.82,160.63 			"/>
			<polygon class="st21" points="-15.82,160.63 -15.82,203.16 5.45,181.9 			"/>
			<polygon class="st14" points="5.45,181.9 26.71,203.16 26.71,203.16 26.71,160.63 			"/>
			<polygon class="st36" points="26.71,160.63 26.71,203.16 47.98,181.9 			"/>
			<polygon class="st4" points="47.98,181.9 69.24,203.16 69.24,203.16 69.24,160.63 			"/>
			<polygon class="st30" points="69.24,160.63 69.24,203.16 90.51,181.9 			"/>
			<polygon class="st22" points="90.51,181.9 111.77,203.16 111.77,203.16 111.77,160.63 			"/>
			<polygon class="st21" points="111.77,160.63 111.77,203.16 133.04,181.9 			"/>
			<polygon class="st34" points="133.04,181.9 154.31,203.16 154.31,203.16 154.31,160.63 			"/>
			<polygon class="st5" points="154.31,160.63 154.31,203.16 175.57,181.9 			"/>
			<polygon class="st27" points="175.57,181.9 196.84,203.16 196.84,203.16 196.84,160.63 			"/>
			<polygon class="st14" points="196.84,160.63 196.84,203.16 218.1,181.9 			"/>
			<polygon class="st14" points="218.1,181.9 239.37,203.16 239.37,203.16 239.37,160.63 			"/>
			<polygon class="st15" points="239.37,160.63 239.37,203.16 260.63,181.9 			"/>
			<polygon class="st2" points="260.63,181.9 281.9,203.16 281.9,203.16 281.9,160.63 			"/>
			<polygon class="st18" points="281.9,160.63 281.9,203.16 303.16,181.9 			"/>
			<polygon class="st2" points="303.16,181.9 324.43,203.16 324.43,203.16 324.43,160.63 			"/>
			<polygon class="st26" points="324.43,160.63 324.43,203.16 345.69,181.9 			"/>
			<polygon class="st28" points="345.69,181.9 366.96,203.16 366.96,203.16 366.96,160.63 			"/>
			<polygon class="st5" points="366.96,160.63 366.96,203.16 388.23,181.9 			"/>
			<polygon class="st10" points="388.23,181.9 409.49,203.16 409.49,203.16 409.49,160.63 			"/>
			<polygon class="st33" points="409.49,160.63 409.49,203.16 430.76,181.9 			"/>
			<polygon class="st18" points="430.76,181.9 452.02,203.16 452.02,203.16 452.02,160.63 			"/>
			<polygon class="st34" points="452.02,160.63 452.02,203.16 473.29,181.9 			"/>
			<polygon class="st24" points="473.29,181.9 494.55,203.16 494.55,203.16 494.55,160.63 			"/>
			<polygon class="st30" points="494.55,160.63 494.55,203.16 515.82,181.9 			"/>
			<polygon class="st0" points="-15.82,203.16 5.45,224.43 5.45,224.43 5.45,181.9 			"/>
			<polygon class="st23" points="5.45,181.9 5.45,224.43 26.71,203.16 			"/>
			<polygon class="st9" points="26.71,203.16 47.98,224.43 47.98,224.43 47.98,181.9 			"/>
			<polygon class="st32" points="47.98,181.9 47.98,224.43 69.24,203.16 			"/>
			<polygon class="st31" points="69.24,203.16 90.51,224.43 90.51,224.43 90.51,181.9 			"/>
			<polygon class="st34" points="90.51,181.9 90.51,224.43 111.77,203.16 			"/>
			<polygon class="st0" points="111.77,203.16 133.04,224.43 133.04,224.43 133.04,181.9 			"/>
			<polygon class="st23" points="133.04,181.9 133.04,224.43 154.31,203.16 			"/>
			<polygon class="st30" points="154.31,203.16 175.57,224.43 175.57,224.43 175.57,181.9 			"/>
			<polygon class="st33" points="175.57,181.9 175.57,224.43 196.84,203.16 			"/>
			<polygon class="st32" points="196.84,203.16 218.1,224.43 218.1,224.43 218.1,181.9 			"/>
			<polygon class="st35" points="218.1,181.9 218.1,224.43 239.37,203.16 			"/>
			<polygon class="st34" points="239.37,203.16 260.63,224.43 260.63,224.43 260.63,181.9 			"/>
			<polygon class="st17" points="260.63,181.9 260.63,224.43 281.9,203.16 			"/>
			<polygon class="st20" points="281.9,203.16 303.16,224.43 303.16,224.43 303.16,181.9 			"/>
			<polygon class="st18" points="303.16,181.9 303.16,224.43 324.43,203.16 			"/>
			<polygon class="st18" points="324.43,203.16 345.69,224.43 345.69,224.43 345.69,181.9 			"/>
			<polygon class="st7" points="345.69,181.9 345.69,224.43 366.96,203.16 			"/>
			<polygon class="st8" points="366.96,203.16 388.23,224.43 388.23,224.43 388.23,181.9 			"/>
			<polygon class="st16" points="388.23,181.9 388.23,224.43 409.49,203.16 			"/>
			<polygon class="st10" points="409.49,203.16 430.76,224.43 430.76,224.43 430.76,181.9 			"/>
			<polygon class="st11" points="430.76,181.9 430.76,224.43 452.02,203.16 			"/>
			<polygon class="st28" points="452.02,203.16 473.29,224.43 473.29,224.43 473.29,181.9 			"/>
			<polygon class="st6" points="473.29,181.9 473.29,224.43 494.55,203.16 			"/>
			<polygon class="st24" points="494.55,203.16 515.82,224.43 515.82,224.43 515.82,181.9 			"/>
			<polygon class="st12" points="515.82,181.9 515.82,224.43 537.08,203.16 			"/>
			<polygon class="st27" points="-37.08,224.43 -15.82,245.69 -15.82,245.69 -15.82,203.16 			"/>
			<polygon class="st4" points="-15.82,203.16 -15.82,245.69 5.45,224.43 			"/>
			<polygon class="st28" points="5.45,224.43 26.71,245.69 26.71,245.69 26.71,203.16 			"/>
			<polygon class="st26" points="26.71,203.16 26.71,245.69 47.98,224.43 			"/>
			<polygon class="st14" points="47.98,224.43 69.24,245.69 69.24,245.69 69.24,203.16 			"/>
			<polygon class="st24" points="69.24,203.16 69.24,245.69 90.51,224.43 			"/>
			<polygon class="st23" points="90.51,224.43 111.77,245.69 111.77,245.69 111.77,203.16 			"/>
			<polygon class="st12" points="111.77,203.16 111.77,245.69 133.04,224.43 			"/>
			<polygon class="st22" points="133.04,224.43 154.31,245.69 154.31,245.69 154.31,203.16 			"/>
			<polygon class="st22" points="154.31,203.16 154.31,245.69 175.57,224.43 			"/>
			<polygon class="st24" points="175.57,224.43 196.84,245.69 196.84,245.69 196.84,203.16 			"/>
			<polygon class="st10" points="196.84,203.16 196.84,245.69 218.1,224.43 			"/>
			<polygon class="st26" points="218.1,224.43 239.37,245.69 239.37,245.69 239.37,203.16 			"/>
			<polygon class="st26" points="239.37,203.16 239.37,245.69 260.63,224.43 			"/>
			<polygon class="st17" points="260.63,224.43 281.9,245.69 281.9,245.69 281.9,203.16 			"/>
			<polygon class="st16" points="281.9,203.16 281.9,245.69 303.16,224.43 			"/>
			<polygon class="st31" points="303.16,224.43 324.43,245.69 324.43,245.69 324.43,203.16 			"/>
			<polygon class="st35" points="324.43,203.16 324.43,245.69 345.69,224.43 			"/>
			<polygon class="st22" points="345.69,224.43 366.96,245.69 366.96,245.69 366.96,203.16 			"/>
			<polygon class="st15" points="366.96,203.16 366.96,245.69 388.23,224.43 			"/>
			<polygon class="st11" points="388.23,224.43 409.49,245.69 409.49,245.69 409.49,203.16 			"/>
			<polygon class="st7" points="409.49,203.16 409.49,245.69 430.76,224.43 			"/>
			<polygon class="st17" points="430.76,224.43 452.02,245.69 452.02,245.69 452.02,203.16 			"/>
			<polygon class="st28" points="452.02,203.16 452.02,245.69 473.29,224.43 			"/>
			<polygon class="st26" points="473.29,224.43 494.55,245.69 494.55,245.69 494.55,203.16 			"/>
			<polygon class="st27" points="494.55,203.16 494.55,245.69 515.82,224.43 			"/>
			<polygon class="st14" points="-15.82,245.69 5.45,266.96 5.45,266.96 5.45,224.43 			"/>
			<polygon class="st35" points="5.45,224.43 5.45,266.96 26.71,245.69 			"/>
			<polygon class="st0" points="26.71,245.69 47.98,266.96 47.98,266.96 47.98,224.43 			"/>
			<polygon class="st3" points="47.98,224.43 47.98,266.96 69.24,245.69 			"/>
			<polygon class="st21" points="69.24,245.69 90.51,266.96 90.51,266.96 90.51,224.43 			"/>
			<polygon class="st16" points="90.51,224.43 90.51,266.96 111.77,245.69 			"/>
			<polygon class="st22" points="111.77,245.69 133.04,266.96 133.04,266.96 133.04,224.43 			"/>
			<polygon class="st14" points="133.04,224.43 133.04,266.96 154.31,245.69 			"/>
			<polygon class="st13" points="154.31,245.69 175.57,266.96 175.57,266.96 175.57,224.43 			"/>
			<polygon class="st27" points="175.57,224.43 175.57,266.96 196.84,245.69 			"/>
			<polygon class="st25" points="196.84,245.69 218.1,266.96 218.1,266.96 218.1,224.43 			"/>
			<polygon class="st17" points="218.1,224.43 218.1,266.96 239.37,245.69 			"/>
			<polygon class="st8" points="239.37,245.69 260.63,266.96 260.63,266.96 260.63,224.43 			"/>
			<polygon class="st19" points="260.63,224.43 260.63,266.96 281.9,245.69 			"/>
			<polygon class="st7" points="281.9,245.69 303.16,266.96 303.16,266.96 303.16,224.43 			"/>
			<polygon class="st19" points="303.16,224.43 303.16,266.96 324.43,245.69 			"/>
			<polygon class="st14" points="324.43,245.69 345.69,266.96 345.69,266.96 345.69,224.43 			"/>
			<polygon class="st30" points="345.69,224.43 345.69,266.96 366.96,245.69 			"/>
			<polygon class="st13" points="366.96,245.69 388.23,266.96 388.23,266.96 388.23,224.43 			"/>
			<polygon class="st29" points="388.23,224.43 388.23,266.96 409.49,245.69 			"/>
			<polygon class="st27" points="409.49,245.69 430.76,266.96 430.76,266.96 430.76,224.43 			"/>
			<polygon class="st8" points="430.76,224.43 430.76,266.96 452.02,245.69 			"/>
			<polygon class="st34" points="452.02,245.69 473.29,266.96 473.29,266.96 473.29,224.43 			"/>
			<polygon class="st16" points="473.29,224.43 473.29,266.96 494.55,245.69 			"/>
			<polygon class="st15" points="494.55,245.69 515.82,266.96 515.82,266.96 515.82,224.43 			"/>
			<polygon class="st7" points="515.82,224.43 515.82,266.96 537.08,245.69 			"/>
			<polygon class="st26" points="-37.08,266.96 -15.82,288.23 -15.82,288.23 -15.82,245.69 			"/>
			<polygon class="st3" points="-15.82,245.69 -15.82,288.23 5.45,266.96 			"/>
			<polygon class="st2" points="5.45,266.96 26.71,288.23 26.71,288.23 26.71,245.69 			"/>
			<polygon class="st15" points="26.71,245.69 26.71,288.23 47.98,266.96 			"/>
			<polygon class="st32" points="47.98,266.96 69.24,288.23 69.24,288.23 69.24,245.69 			"/>
			<polygon class="st0" points="69.24,245.69 69.24,288.23 90.51,266.96 			"/>
			<polygon class="st18" points="90.51,266.96 111.77,288.23 111.77,288.23 111.77,245.69 			"/>
			<polygon class="st33" points="111.77,245.69 111.77,288.23 133.04,266.96 			"/>
			<polygon class="st6" points="133.04,266.96 154.31,288.23 154.31,288.23 154.31,245.69 			"/>
			<polygon class="st31" points="154.31,245.69 154.31,288.23 175.57,266.96 			"/>
			<polygon class="st16" points="175.57,266.96 196.84,288.23 196.84,288.23 196.84,245.69 			"/>
			<polygon class="st4" points="196.84,245.69 196.84,288.23 218.1,266.96 			"/>
			<polygon class="st15" points="218.1,266.96 239.37,288.23 239.37,288.23 239.37,245.69 			"/>
			<polygon class="st2" points="239.37,245.69 239.37,288.23 260.63,266.96 			"/>
			<polygon class="st18" points="260.63,266.96 281.9,288.23 281.9,288.23 281.9,245.69 			"/>
			<polygon class="st14" points="281.9,245.69 281.9,288.23 303.16,266.96 			"/>
			<polygon class="st25" points="303.16,266.96 324.43,288.23 324.43,288.23 324.43,245.69 			"/>
			<polygon class="st8" points="324.43,245.69 324.43,288.23 345.69,266.96 			"/>
			<polygon class="st8" points="345.69,266.96 366.96,288.23 366.96,288.23 366.96,245.69 			"/>
			<polygon class="st22" points="366.96,245.69 366.96,288.23 388.23,266.96 			"/>
			<polygon class="st19" points="388.23,266.96 409.49,288.23 409.49,288.23 409.49,245.69 			"/>
			<polygon class="st6" points="409.49,245.69 409.49,288.23 430.76,266.96 			"/>
			<polygon class="st12" points="430.76,266.96 452.02,288.23 452.02,288.23 452.02,245.69 			"/>
			<polygon class="st17" points="452.02,245.69 452.02,288.23 473.29,266.96 			"/>
			<polygon class="st26" points="473.29,266.96 494.55,288.23 494.55,288.23 494.55,245.69 			"/>
			<polygon class="st2" points="494.55,245.69 494.55,288.23 515.82,266.96 			"/>
			<polygon class="st34" points="-15.82,288.23 5.45,309.49 5.45,309.49 5.45,266.96 			"/>
			<polygon class="st33" points="5.45,266.96 5.45,309.49 26.71,288.23 			"/>
			<polygon class="st18" points="26.71,288.23 47.98,309.49 47.98,309.49 47.98,266.96 			"/>
			<polygon class="st24" points="47.98,266.96 47.98,309.49 69.24,288.23 			"/>
			<polygon class="st12" points="69.24,288.23 90.51,309.49 90.51,309.49 90.51,266.96 			"/>
			<polygon class="st34" points="90.51,266.96 90.51,309.49 111.77,288.23 			"/>
			<polygon class="st10" points="111.77,288.23 133.04,309.49 133.04,309.49 133.04,266.96 			"/>
			<polygon class="st19" points="133.04,266.96 133.04,309.49 154.31,288.23 			"/>
			<polygon class="st21" points="154.31,288.23 175.57,309.49 175.57,309.49 175.57,266.96 			"/>
			<polygon class="st19" points="175.57,266.96 175.57,309.49 196.84,288.23 			"/>
			<polygon class="st3" points="196.84,288.23 218.1,309.49 218.1,309.49 218.1,266.96 			"/>
			<polygon class="st26" points="218.1,266.96 218.1,309.49 239.37,288.23 			"/>
			<polygon class="st34" points="239.37,288.23 260.63,309.49 260.63,309.49 260.63,266.96 			"/>
			<polygon class="st24" points="260.63,266.96 260.63,309.49 281.9,288.23 			"/>
			<polygon class="st16" points="281.9,288.23 303.16,309.49 303.16,309.49 303.16,266.96 			"/>
			<polygon class="st25" points="303.16,266.96 303.16,309.49 324.43,288.23 			"/>
			<polygon class="st6" points="324.43,288.23 345.69,309.49 345.69,309.49 345.69,266.96 			"/>
			<polygon class="st11" points="345.69,266.96 345.69,309.49 366.96,288.23 			"/>
			<polygon class="st18" points="366.96,288.23 388.23,309.49 388.23,309.49 388.23,266.96 			"/>
			<polygon class="st24" points="388.23,266.96 388.23,309.49 409.49,288.23 			"/>
			<polygon class="st11" points="409.49,288.23 430.76,309.49 430.76,309.49 430.76,266.96 			"/>
			<polygon class="st18" points="430.76,266.96 430.76,309.49 452.02,288.23 			"/>
			<polygon class="st11" points="452.02,288.23 473.29,309.49 473.29,309.49 473.29,266.96 			"/>
			<polygon class="st15" points="473.29,266.96 473.29,309.49 494.55,288.23 			"/>
			<polygon class="st29" points="494.55,288.23 515.82,309.49 515.82,309.49 515.82,266.96 			"/>
			<polygon class="st35" points="515.82,266.96 515.82,309.49 537.08,288.23 			"/>
			<polygon class="st32" points="-37.08,309.49 -15.82,330.76 -15.82,330.76 -15.82,288.23 			"/>
			<polygon class="st16" points="-15.82,288.23 -15.82,330.76 5.45,309.49 			"/>
			<polygon class="st5" points="5.45,309.49 26.71,330.76 26.71,330.76 26.71,288.23 			"/>
			<polygon class="st14" points="26.71,288.23 26.71,330.76 47.98,309.49 			"/>
			<polygon class="st0" points="47.98,309.49 69.24,330.76 69.24,330.76 69.24,288.23 			"/>
			<polygon class="st11" points="69.24,288.23 69.24,330.76 90.51,309.49 			"/>
			<polygon class="st33" points="90.51,309.49 111.77,330.76 111.77,330.76 111.77,288.23 			"/>
			<polygon class="st34" points="111.77,288.23 111.77,330.76 133.04,309.49 			"/>
			<polygon class="st3" points="133.04,309.49 154.31,330.76 154.31,330.76 154.31,288.23 			"/>
			<polygon class="st13" points="154.31,288.23 154.31,330.76 175.57,309.49 			"/>
			<polygon class="st15" points="175.57,309.49 196.84,330.76 196.84,330.76 196.84,288.23 			"/>
			<polygon class="st5" points="196.84,288.23 196.84,330.76 218.1,309.49 			"/>
			<polygon class="st32" points="218.1,309.49 239.37,330.76 239.37,330.76 239.37,288.23 			"/>
			<polygon class="st30" points="239.37,288.23 239.37,330.76 260.63,309.49 			"/>
			<polygon class="st35" points="260.63,309.49 281.9,330.76 281.9,330.76 281.9,288.23 			"/>
			<polygon class="st20" points="281.9,288.23 281.9,330.76 303.16,309.49 			"/>
			<polygon class="st8" points="303.16,309.49 324.43,330.76 324.43,330.76 324.43,288.23 			"/>
			<polygon class="st23" points="324.43,288.23 324.43,330.76 345.69,309.49 			"/>
			<polygon class="st26" points="345.69,309.49 366.96,330.76 366.96,330.76 366.96,288.23 			"/>
			<polygon class="st34" points="366.96,288.23 366.96,330.76 388.23,309.49 			"/>
			<polygon class="st26" points="388.23,309.49 409.49,330.76 409.49,330.76 409.49,288.23 			"/>
			<polygon class="st5" points="409.49,288.23 409.49,330.76 430.76,309.49 			"/>
			<polygon class="st13" points="430.76,309.49 452.02,330.76 452.02,330.76 452.02,288.23 			"/>
			<polygon class="st8" points="452.02,288.23 452.02,330.76 473.29,309.49 			"/>
			<polygon class="st28" points="473.29,309.49 494.55,330.76 494.55,330.76 494.55,288.23 			"/>
			<polygon class="st8" points="494.55,288.23 494.55,330.76 515.82,309.49 			"/>
		</g>
	</g>
</g>
</svg>
