<?xml version="1.0" encoding="utf-8"?>
<!-- Generator: Adobe Illustrator 24.1.1, SVG Export Plug-In . SVG Version: 6.00 Build 0)  -->
<svg version="1.1" xmlns="http://www.w3.org/2000/svg" xmlns:xlink="http://www.w3.org/1999/xlink" x="0px" y="0px"
	 viewBox="0 0 89.69 102.38" style="enable-background:new 0 0 89.69 102.38;" xml:space="preserve">
<style type="text/css">
	.st0{fill:#FFFFFF;}
	.st1{fill:#E84E1B;}
</style>
<g id="Background">
	<rect x="-473.6" y="114.79" class="st0" width="800" height="800"/>
</g>
<g id="Objects">
	<g>
		<path class="st0" d="M-363.08-44.61l-80.56,46.14c-3.02,1.71-6.75-0.47-6.75-3.94l0-91.15c0-3.47,3.74-5.64,6.75-3.94l80.56,46.24
			C-360.02-49.52-360.02-46.34-363.08-44.61z"/>
		<g>
			<g>
				<path class="st1" d="M-425.89-87.51l-18.76-10.83c-3.16-1.83-5.75-0.33-5.75,3.32v21.55C-444.32-80.81-435.7-85.94-425.89-87.51
					z"/>
			</g>
			<g>
				<polygon class="st1" points="-390.39,-67.01 -408.5,-67.01 -415.73,-67.01 -425.86,-67.01 -416.99,-82.37 -420.5,-84.4 
					-430.54,-67.01 -439.22,-51.98 -450.4,-71.33 -450.4,-63.24 -441.56,-47.93 -432.87,-32.89 -450.4,-32.89 -450.4,-28.84 
					-430.54,-28.84 -423.31,-28.84 -413.17,-28.84 -424.57,-9.11 -417.56,-13.16 -404.89,-35.1 -399.82,-43.88 -390.95,-28.52 
					-387.44,-30.54 -397.48,-47.93 -406.16,-62.97 -383.38,-62.97 				"/>
			</g>
			<g>
				<path class="st1" d="M-363.08-51.25l-18.98-10.96c1.69,4.44,2.64,9.24,2.64,14.28c0,5.03-0.93,9.83-2.62,14.27l18.96-10.95
					C-359.92-46.44-359.92-49.42-363.08-51.25z"/>
			</g>
			<g>
				<path class="st1" d="M-450.4-22.37v21.54c0,3.65,2.59,5.15,5.75,3.32l18.78-10.84C-435.69-9.92-444.32-15.05-450.4-22.37z"/>
			</g>
		</g>
		
			<text transform="matrix(1 0 0 1 -349.3947 -36.2497)" style="fill:#083C38; font-family:'Swiss721BT-Heavy'; font-size:61.9006px; letter-spacing:-4;">PHOTO</text>
		
			<text transform="matrix(1 0 0 1 -140.2065 -12.9201)" class="st1" style="font-family:'Swiss721BT-Heavy'; font-size:95.6347px; letter-spacing:-7;">AB</text>
		
			<text transform="matrix(1.0258 0 0 1 -321.4912 -16.6486)" style="font-family:'CinzelDecorative-Regular'; font-size:16.4996px;">creamos tu estilo</text>
		<path class="st0" d="M87.31,54.51L6.75,100.65C3.74,102.36,0,100.18,0,96.71L0,5.56c0-3.47,3.74-5.64,6.75-3.94l80.56,46.24
			C90.37,49.6,90.37,52.78,87.31,54.51z"/>
		<g>
			<g>
				<path class="st1" d="M24.51,11.61L5.75,0.78C2.59-1.05,0,0.45,0,4.1v21.55C6.07,18.31,14.69,13.18,24.51,11.61z"/>
			</g>
			<g>
				<polygon class="st1" points="60.01,32.1 41.89,32.1 34.67,32.1 24.54,32.1 33.4,16.74 29.9,14.72 19.86,32.1 11.18,47.14 
					0,27.78 0,35.88 8.84,51.19 17.52,66.23 0,66.23 0,70.28 19.86,70.28 27.09,70.28 37.22,70.28 25.83,90.01 32.84,85.96 
					45.51,64.02 50.58,55.24 59.45,70.6 62.95,68.57 52.91,51.19 44.23,36.15 67.02,36.15 				"/>
			</g>
			<g>
				<path class="st1" d="M87.31,47.87L68.34,36.91c1.69,4.44,2.64,9.24,2.64,14.28c0,5.03-0.93,9.83-2.62,14.27l18.96-10.95
					C90.48,52.68,90.48,49.7,87.31,47.87z"/>
			</g>
			<g>
				<path class="st1" d="M0,76.74v21.54c0,3.65,2.59,5.15,5.75,3.32l18.78-10.84C14.7,89.19,6.07,84.07,0,76.74z"/>
			</g>
		</g>
	</g>
</g>
</svg>
