<?xml version="1.0" encoding="utf-8"?>
<!-- Generator: Adobe Illustrator 24.1.1, SVG Export Plug-In . SVG Version: 6.00 Build 0)  -->
<svg version="1.1" xmlns="http://www.w3.org/2000/svg" xmlns:xlink="http://www.w3.org/1999/xlink" x="0px" y="0px"
	 viewBox="0 0 436.99 102.38" style="enable-background:new 0 0 436.99 102.38;" xml:space="preserve">
<style type="text/css">
	.st0{fill:#FFFFFF;}
	.st1{fill:#E84E1B;}
	.st2{fill:#083C38;}
	.st3{font-family:'Swiss721BT-Heavy';}
	.st4{font-size:61.9006px;}
	.st5{letter-spacing:-4;}
	.st6{font-size:95.6347px;}
	.st7{letter-spacing:-7;}
	.st8{font-family:'CinzelDecorative-Regular';}
	.st9{font-size:16.4996px;}
</style>
<g id="Background">
	<rect x="-23.21" y="213.9" class="st0" width="800" height="800"/>
</g>
<g id="Objects">
	<g>
		<g>
			<g>
				<path class="st1" d="M24.51,11.61L5.75,0.78C2.59-1.05,0,0.45,0,4.1v21.55C6.07,18.31,14.69,13.18,24.51,11.61z"/>
			</g>
			<g>
				<polygon class="st1" points="60.01,32.1 41.89,32.1 34.67,32.1 24.54,32.1 33.4,16.74 29.9,14.72 19.86,32.1 11.18,47.14 
					0,27.78 0,35.88 8.84,51.19 17.52,66.23 0,66.23 0,70.28 19.86,70.28 27.09,70.28 37.22,70.28 25.83,90.01 32.84,85.96 
					45.51,64.02 50.58,55.24 59.45,70.6 62.95,68.57 52.91,51.19 44.23,36.15 67.02,36.15 				"/>
			</g>
			<g>
				<path class="st1" d="M87.31,47.87L68.34,36.91c1.69,4.44,2.64,9.24,2.64,14.28c0,5.03-0.93,9.83-2.62,14.27l18.96-10.95
					C90.48,52.68,90.48,49.7,87.31,47.87z"/>
			</g>
			<g>
				<path class="st1" d="M0,76.74v21.54c0,3.65,2.59,5.15,5.75,3.32l18.78-10.84C14.7,89.19,6.07,84.07,0,76.74z"/>
			</g>
		</g>
		<text transform="matrix(1 0 0 1 101.0007 62.8685)" class="st2 st3 st4 st5">PHOTO</text>
		<text transform="matrix(1 0 0 1 310.189 86.198)" class="st1 st3 st6 st7">AB</text>
		<text transform="matrix(1.0258 0 0 1 128.9043 82.4695)" class="st0 st8 st9">creamos tu estilo</text>
	</g>
</g>
</svg>
